<svg xmlns="http://www.w3.org/2000/svg" xmlns:xlink="http://www.w3.org/1999/xlink" width="866.695" height="572.193" viewBox="0 0 866.695 572.193"><defs><style>.a,.j{fill:#3d1b7c;}.a,.i,.k,.p{opacity:0.1;}.b{fill:url(#a);}.c{fill:#3a3768;}.d{fill:#3f3d56;}.e{fill:#f86d70;}.f{fill:#a1616a;}.g{fill:#ee8e9e;}.h,.t{opacity:0.05;}.l{fill:#efb7b9;}.m{fill:#4c4981;}.n{fill:#444053;}.o{fill:#925978;}.p{fill:#fff;}.q{fill:none;stroke:#444053;stroke-miterlimit:10;}.r{fill:url(#b);}.s{fill:#2d293d;}.u{fill:#ffcdd3;}.v{fill:#dce6f2;}</style><linearGradient id="a" x1="-0.232" y1="0.5" x2="0.769" y2="0.5" gradientUnits="objectBoundingBox"><stop offset="0" stop-color="gray" stop-opacity="0.251"/><stop offset="0.54" stop-color="gray" stop-opacity="0.122"/><stop offset="1" stop-color="gray" stop-opacity="0.102"/></linearGradient><linearGradient id="b" x1="-3.46" y1="0.929" x2="-3.46" y2="-0.082" xlink:href="#a"/></defs><g transform="translate(0 -0.005)"><circle class="a" cx="17.055" cy="17.055" r="17.055" transform="translate(760.053 275.543)"/><circle class="a" cx="28.582" cy="28.582" r="28.582" transform="translate(809.53 187.974)"/><circle class="a" cx="17.055" cy="17.055" r="17.055" transform="translate(341.955 4.85)"/><circle class="a" cx="17.055" cy="17.055" r="17.055" transform="translate(537.584 24.452)"/><circle class="a" cx="28.582" cy="28.582" r="28.582" transform="translate(0 228.636)"/><path class="a" d="M534.441,181.46c-51.03-1.9-99.632-19.594-146.042-38.959S296.013,101.7,246.245,91.44c-32.036-6.6-68.669-7.538-94.483,10.913-24.876,17.788-32.9,48.4-37.193,76.837-3.249,21.4-5.157,43.918,3.737,63.946,6.174,13.909,17.142,25.594,24.727,38.911,26.39,46.347,7.735,103.5-20.863,148.754-13.4,21.226-28.969,41.474-39.321,64.072s-15.162,48.491-6.126,71.546c8.973,22.866,30.364,40.007,53.538,52.04,47.064,24.514,102.5,31.539,156.6,35.482,119.707,8.8,240.06,4.991,360.09,1.175,44.415-1.411,89.035-2.846,132.732-10.25,24.269-4.1,49.319-10.605,66.934-26.3,22.369-19.925,27.912-53.672,12.923-78.659-25.137-41.915-94.617-52.331-112.208-97.314-9.667-24.758.26-52.339,14.319-75.3,30.143-49.264,80.685-92.481,83.342-148.794,1.829-38.635-22.464-77.4-60.027-95.7-39.377-19.184-93.971-16.771-123,14.981C632.063,170.6,579.495,183.148,534.441,181.46Z" transform="translate(-54.96 -87.11)"/><path class="b" d="M872.34,470.249a4.66,4.66,0,0,0,1.049,2.728,15.5,15.5,0,0,0,4.195,3.564v4.274s12.616,10.542,15.21,14.524c2.5,3.8,5.054,7.672,8.61,10.5a7.767,7.767,0,0,0,3.209,1.7h.213a3.336,3.336,0,0,1-1.23.788,2.917,2.917,0,0,0,3.438,2.468,5.747,5.747,0,0,0,1.7-.852l5-3.233a14.318,14.318,0,0,0,2.326-1.742c.93-.938,1.577-2.113,2.492-3.075,1.577-1.64,3.816-2.618,4.912-4.589a22.18,22.18,0,0,0,1.23-4.037c.276-.883.678-1.719.946-2.6a9.4,9.4,0,0,0,.323-1.624c.173.15.355.3.544.441.386-.252,1.128.41.954.836s-.591.733-.733,1.175c-.315,1.009.93,1.758,1.451,2.681s.252,2.105.308,3.154.536,2.31.686,3.485c.363,2.744-.994,5.638,0,8.232a2.594,2.594,0,0,0-2.563,1.995,7.553,7.553,0,0,0,.1,3.509,4.825,4.825,0,0,0-2.365,4.408,1.08,1.08,0,0,1-.11.789,1.12,1.12,0,0,1-.449.26,4.447,4.447,0,0,0-2.744,4.132,2.051,2.051,0,0,1-.079.875,2.073,2.073,0,0,1-.646.662A5.141,5.141,0,0,0,918.4,529.7a2.917,2.917,0,0,0,1.356,2.634h.055a14.193,14.193,0,0,0-4.731,8.981,36.871,36.871,0,0,0,.615,9.3h.284v.229a4.139,4.139,0,0,0,.449,1.34,19.206,19.206,0,0,1,1.7,6.907,6.117,6.117,0,0,0,.236,1.743,8.788,8.788,0,0,0,.891,1.53,16.264,16.264,0,0,1,1.648,5.756,45.506,45.506,0,0,0,2.011,7.546c1.206,3.343,2.831,6.765,2.279,10.25a10.247,10.247,0,0,0-.315,2.531,7.4,7.4,0,0,0,.994,2.657,24.609,24.609,0,0,1,1.1,2.46,1.987,1.987,0,0,0,.489,1.333c.095.26.173.528.252.788s.134.418.2.631a8.121,8.121,0,0,1,.245,1.072l-.047.828V599a1.964,1.964,0,0,1-.379.7,2.809,2.809,0,0,1-.2.229l-.189.213a1.423,1.423,0,0,0-.213.307h0a1.474,1.474,0,0,0-.063.907,1.438,1.438,0,0,0,.079.355c.2.852.41,1.7.623,2.547.063.26.134.513.2.789.173.662.347,1.333.528,1.995v.087l.118.442.449,1.624c.095.323.189.639.276.962l.347,1.175q.4,1.372.828,2.744c2.815,9.288,5.835,18.521,7.7,28.046a3.019,3.019,0,0,0,1.127,1.687,6.5,6.5,0,0,0,1.963,1.057c.181,1.4.631,3.1.686,3.942.173,2.752.3,5.685-.7,8.192a.662.662,0,0,0-.6.189,24.453,24.453,0,0,0-1.806,1.916l-3.7,3.942a6.106,6.106,0,0,0-.836,1.017,3.556,3.556,0,0,0-.355,2.909,3.942,3.942,0,0,0,1.9,2.255,3.157,3.157,0,0,1,.6.339,3.542,3.542,0,0,0,.37.315,1.435,1.435,0,0,0,.789.15,28.156,28.156,0,0,0,6.205-1.057,4.975,4.975,0,0,0,2.563-1.206,4.8,4.8,0,0,0,.875-1.7l.741-2.05a23.346,23.346,0,0,0,1.128-3.824,7.883,7.883,0,0,0-.2-3.942.79.79,0,0,0-.189.323c.181-1.143.355-2.294.536-3.446.055-.339.1-.686.15-1.041.237,3.067-.213,6.158-.071,9.233a10.774,10.774,0,0,0-.307,1.727c.2,2.823,1.38,5.906,3.658,7.585a3.745,3.745,0,0,0,1.254.654,4.431,4.431,0,0,0,1.293,0,16.481,16.481,0,0,0,4.92-.93A6.048,6.048,0,0,0,963.74,667a7.884,7.884,0,0,0,.355-2.429,9.326,9.326,0,0,0-.229-2.562,19.541,19.541,0,0,0-1.293-2.988,28.527,28.527,0,0,1-1.466-4.4l-.686-2.5c-.189-.71-.386-1.419-.631-2.113a3.54,3.54,0,0,0-.875-1.664c-.284-.221-.473-.237-.6-.11v-.268a28.277,28.277,0,0,0,.181-2.925c-.189-1.577-1.443-2.862-2.255-4.266a8.33,8.33,0,0,1-.9-2.255c-.047-.173-.079-.339-.11-.52a1.839,1.839,0,0,1,.449-.292l1.4.789c-1.238-9.3-.583-19.057-4.195-27.715-1.577-3.769-4.613-7.7-4.274-11.756a3.312,3.312,0,0,1,.371-5.283c.607-.331,1.356-.489,1.774-1.049a2.86,2.86,0,0,0,.4-1.017,161.3,161.3,0,0,1,7.79-23.378c.7-1.664,1.427-3.312,2.16-4.959l2.444-5.559,2.98-6.765c1.009-2.279,2.026-4.881,1.072-7.175-.378-.907-1.049-1.766-.954-2.736a17.194,17.194,0,0,1,.584-1.806,4.5,4.5,0,0,0-.15-1.963c-.2-.852-.418-1.7-.647-2.547a14.193,14.193,0,0,1,1.9.363c.378-.639-.229-1.38-.6-2.026a6.851,6.851,0,0,1-.686-2.815l-.788-7.956a14.114,14.114,0,0,1-.063-3.312c.158-1.167.607-2.279.836-3.446.434-2.231,0-4.534.142-6.812a30.539,30.539,0,0,1,1.041-5.929c.071-.292.134-.576.205-.867a4.733,4.733,0,0,0,1.143.2h.978a3.155,3.155,0,0,0,.434-.11h.095a4.741,4.741,0,0,0,.465-.181c-.189-.4-.363-.788-.528-1.214-.071-.166-.134-.331-.2-.5s-.181-.465-.26-.7-.158-.434-.229-.647-.118-.363-.173-.544-.15-.5-.221-.788-.142-.52-.213-.788l.118-.245a6.914,6.914,0,0,0,1.3.891c1.577,2.72,3,5.519,4.321,8.342a2.65,2.65,0,0,0,.4-1.017,4.876,4.876,0,0,0,.56.717,8.361,8.361,0,0,0,1.837,1.348,4.731,4.731,0,0,0,2.176.789,4.061,4.061,0,0,0,2.783-1.206c2.294-2.011,3.438-5,4.5-7.885a59.365,59.365,0,0,0,3.391-11.614c.647-4.281.371-8.728,1.577-12.884-1.1-2.176-1.79-4.581-3.02-6.686a29.9,29.9,0,0,1-2.082-3.9,13.483,13.483,0,0,1-.371-9.02,1.238,1.238,0,0,0-1.443.079,3.018,3.018,0,0,0-.867,1.262,11.188,11.188,0,0,0-.86,5.3,2.114,2.114,0,0,1-.15,1.293,1.624,1.624,0,0,1-1.4.591,12.1,12.1,0,0,1-3.248-.591,30.181,30.181,0,0,0-9.052-.883,7.18,7.18,0,0,0-.789-.788l-.339-.276-.347-.268-.173-.142a3.954,3.954,0,0,1-.331-.292,2.184,2.184,0,0,1-.788-1.38,1.78,1.78,0,0,1,0-.2,1.542,1.542,0,0,1,0-.189,2.665,2.665,0,0,1,.181-.552,3.7,3.7,0,0,1,.173-.355l.087-.181c0-.055.055-.118.087-.173a5.206,5.206,0,0,0,.252-.662,4.839,4.839,0,0,0,.166-.686,5.155,5.155,0,0,0,.071-.7q0-.355,0-.71v-.355a7.167,7.167,0,0,0-.292-1.4,7.785,7.785,0,0,0-.378-1.009,11.163,11.163,0,0,0-.67-1.246,19.064,19.064,0,0,0-1.687-2.294l-.465-.544-.473-.536a18.721,18.721,0,0,1-1.372-1.679,6.527,6.527,0,0,1-.789-1.4c-.063-.166-.118-.331-.166-.5a5.133,5.133,0,0,1-.142-.978v-.323a12.147,12.147,0,0,1,.063-1.317c.063-.615.15-1.238.237-1.869.055-.418.118-.836.173-1.254a4.211,4.211,0,0,1,.079-.623c.047-.418.095-.836.126-1.254a12.015,12.015,0,0,0-.205-3.651,6.913,6.913,0,0,0-.371-1.167,7.4,7.4,0,0,0-.789-1.419,10.25,10.25,0,0,0-4.384-3.414,20.189,20.189,0,0,0-4.013-1.285c-.552-.118-1.1-.221-1.64-.307-8.2-1.317-16.9,1.175-22.077,7.885a30.591,30.591,0,0,0-5.969,11.693,16.692,16.692,0,0,0,1.884,12.75c1.017,1.577,2.365,2.9,3.256,4.526.741,1.325,1.183,2.815,1.979,4.108a9.7,9.7,0,0,0,4.376,3.682l-.347.315a10.629,10.629,0,0,0-2.452.047c-.836.142-1.648.465-2.492.568-1.041.134-2.105-.071-3.154.063-1.94.252-3.532,1.577-5.007,2.878-1.727,1.506-3.58,3.264-3.714,5.519v.063l-1.159,1.577a6.221,6.221,0,0,0-.725,1.143c-.465,1.1-.205,2.365-.457,3.532a7.556,7.556,0,0,1-.915,2.105,47.366,47.366,0,0,1-3.942,5.882,9.966,9.966,0,0,1-2.452,2.428,4.415,4.415,0,0,1-2.555.725,16.376,16.376,0,0,1-3.737-2.5,24.1,24.1,0,0,1-3.3-4.108c-1.876-2.7,3.943,5.385,2.066,2.673l-16.826-28.038a22.856,22.856,0,0,1-.662-3.99c0-.513-.213-1.191-.733-1.206a.891.891,0,0,0-.591.284,3.422,3.422,0,0,0-1.1,2.917,4.045,4.045,0,0,0-2.578.457,1.474,1.474,0,0,0-.323,2.1v.213a1.12,1.12,0,0,0-.591,1.183,4.006,4.006,0,0,0-2.768.134c-.828.465-1.143,1.829-.339,2.365a2.421,2.421,0,0,0-1.545,2.287Zm105.4,4.021a13.016,13.016,0,0,0,1.474.378,23.531,23.531,0,0,1,4.573,1.577,2.508,2.508,0,0,1,1.191.891,2.65,2.65,0,0,1-.142,2.239l-2.082,5.622c-.331.883-.654,1.766-1.064,2.61-.158.339-.339.678-.52,1.009q-.095-.284-.189-.544a46.138,46.138,0,0,1-1.5-5.236c-.347-1.53-.639-3.075-.883-4.62a22.575,22.575,0,0,0-.875-3.927Zm-2.176-4.408.158.11a1.775,1.775,0,0,1,.544.379.844.844,0,0,1,0,.788Zm-3.761-5.417,2.492.363a3.272,3.272,0,0,1,1.679.576,1.128,1.128,0,0,1,.229,1.577,3.751,3.751,0,0,1-.552.371,1.577,1.577,0,0,0-.591,1.632,17.664,17.664,0,0,0-1.427-2.216,10.96,10.96,0,0,0-1.664-1.7C971.917,464.848,971.87,464.643,971.806,464.446ZM947.86,643.69a8.908,8.908,0,0,0,.922,0,8.85,8.85,0,0,0-.15,2.239Z" transform="translate(-224.258 -158.294)"/><path class="c" d="M964.653,426.129c4.329.694,9.138,2.365,10.794,6.418,1.246,3.067.284,6.513,0,9.809a7.445,7.445,0,0,0,.095,2.61,9.155,9.155,0,0,0,2.287,3.588,19.114,19.114,0,0,1,3.3,4.613,6.718,6.718,0,0,1,.221,5.519,4.013,4.013,0,0,0-.544,1.451c-.055,1.128,1.12,1.837,1.987,2.555,3.248,2.689,3.107,7.585,3.154,11.827a59.7,59.7,0,0,0,5.646,24.947,7.625,7.625,0,0,1-8.531-1.112,28.731,28.731,0,0,0,1.94,5.582c-2.752,1.333-6.063-.859-7.435-3.58s-1.577-5.9-2.523-8.784-2.752-5.433-3.54-8.342a8.018,8.018,0,0,0-.986-2.791,7.1,7.1,0,0,0-1.735-1.474,16.874,16.874,0,0,1-6.111-8.295,32.507,32.507,0,0,1-10.25,1.183c-3.454-.308-6.931-1.869-8.736-4.8-.789-1.293-1.238-2.783-1.979-4.108-.907-1.624-2.247-2.957-3.264-4.518a16.68,16.68,0,0,1-1.877-12.734,30.361,30.361,0,0,1,5.969-11.677C947.756,427.3,956.461,424.812,964.653,426.129Z" transform="translate(-237.74 -158.747)"/><path class="d" d="M964.653,426.129c4.329.694,9.138,2.365,10.794,6.418,1.246,3.067.284,6.513,0,9.809a7.445,7.445,0,0,0,.095,2.61,9.155,9.155,0,0,0,2.287,3.588,19.114,19.114,0,0,1,3.3,4.613,6.718,6.718,0,0,1,.221,5.519,4.013,4.013,0,0,0-.544,1.451c-.055,1.128,1.12,1.837,1.987,2.555,3.248,2.689,3.107,7.585,3.154,11.827a59.7,59.7,0,0,0,5.646,24.947,7.625,7.625,0,0,1-8.531-1.112,28.731,28.731,0,0,0,1.94,5.582c-2.752,1.333-6.063-.859-7.435-3.58s-1.577-5.9-2.523-8.784-2.752-5.433-3.54-8.342a8.018,8.018,0,0,0-.986-2.791,7.1,7.1,0,0,0-1.735-1.474,16.874,16.874,0,0,1-6.111-8.295,32.507,32.507,0,0,1-10.25,1.183c-3.454-.308-6.931-1.869-8.736-4.8-.789-1.293-1.238-2.783-1.979-4.108-.907-1.624-2.247-2.957-3.264-4.518a16.68,16.68,0,0,1-1.877-12.734,30.361,30.361,0,0,1,5.969-11.677C947.756,427.3,956.461,424.812,964.653,426.129Z" transform="translate(-237.74 -158.747)"/><path class="e" d="M1003.465,492.876c.244,1.577.536,3.091.891,4.628a44.28,44.28,0,0,0,1.49,5.22,5.015,5.015,0,0,1,.465,2.365,4.421,4.421,0,0,1-.576,1.435c-1.979,3.509-4.644,6.9-4.873,10.92a5.876,5.876,0,0,1-.536,2.909q-2.294-4.92-5.054-9.6c-1.924-3.264-4.061-6.56-4.613-10.313a19.564,19.564,0,0,1,.063-5.3,11.537,11.537,0,0,1,1.908-5.575c1.3-1.7,4.889-4.281,7.207-3.753C1002.558,486.474,1003.118,490.676,1003.465,492.876Z" transform="translate(-249.254 -171.428)"/><path class="f" d="M908.759,508.384a23.5,23.5,0,0,1-7.278-4.069,23.739,23.739,0,0,1-3.3-4.1l-6.079-8.784c-1.443-2.089-2.925-4.281-3.233-6.8a22.369,22.369,0,0,1-6.079-13.8c0-.52-.2-1.191-.725-1.206a.914.914,0,0,0-.6.284,3.43,3.43,0,0,0-1.088,2.917,4.045,4.045,0,0,0-2.578.449c-.725.52-.915,1.806-.134,2.239a1.112,1.112,0,0,0-.788,1.254,3.942,3.942,0,0,0-2.768.134c-.788.465-1.143,1.821-.339,2.365a2.365,2.365,0,0,0-1.577,2.31,4.636,4.636,0,0,0,1.049,2.72c2.365,3.154,6.465,4.4,9.17,7.222a20.951,20.951,0,0,1,2.365,3.154l7.845,11.938c2.492,3.793,5.054,7.656,8.61,10.479a7.79,7.79,0,0,0,3.2,1.7,3.54,3.54,0,0,0,3.367-.93,5.5,5.5,0,0,0,.986-3.359C908.972,512.5,908.625,510.41,908.759,508.384Z" transform="translate(-224.226 -168.02)"/><path class="d" d="M951.517,727.181a6.816,6.816,0,0,0-.836,1.017,3.556,3.556,0,0,0-.355,2.91,3.943,3.943,0,0,0,1.9,2.247,3.721,3.721,0,0,1,.6.347,3.544,3.544,0,0,0,.371.315,1.435,1.435,0,0,0,.789.15,28.709,28.709,0,0,0,6.205-1.057,4.975,4.975,0,0,0,2.563-1.206,5.1,5.1,0,0,0,.875-1.7l.733-2.05a24.073,24.073,0,0,0,1.135-3.816,7.948,7.948,0,0,0-.205-3.942,1.286,1.286,0,0,0-.276.789,8.73,8.73,0,0,1-1.577,3.824,3.9,3.9,0,0,1-.615.789,4.014,4.014,0,0,1-1.845.789,22.676,22.676,0,0,1-3.942.5,1.228,1.228,0,0,1-.536-.063.938.938,0,0,1-.449-.56,2.366,2.366,0,0,1,0-1.577c.355-.993,1.333-1.648,1.806-2.6.347-.7-.134-1.474-.852-.883a21.852,21.852,0,0,0-1.806,1.916Z" transform="translate(-240.72 -221.064)"/><path class="g" d="M959.29,709c.213,3.3.355,6.868-1.451,9.635-.647,1-1.522,1.837-2.263,2.775a3.256,3.256,0,0,0-.788,1.672,2.558,2.558,0,0,0,2.224,2.468,7.356,7.356,0,0,0,3.572-.513,8.6,8.6,0,0,0,3.036-1.427c1.577-1.333,1.987-3.548,2.3-5.583l.733-4.731a14.913,14.913,0,0,0,.268-3.446,15.344,15.344,0,0,0-.922-3.714l-1.214-3.548a1.671,1.671,0,0,0-.536-.883,1.577,1.577,0,0,0-.922-.166c-1.159.055-4.084.481-4.644,1.7C958.171,704.344,959.211,707.75,959.29,709Z" transform="translate(-241.696 -217.071)"/><path class="h" d="M959.29,709c.213,3.3.355,6.868-1.451,9.635-.647,1-1.522,1.837-2.263,2.775a3.256,3.256,0,0,0-.788,1.672,2.558,2.558,0,0,0,2.224,2.468,7.356,7.356,0,0,0,3.572-.513,8.6,8.6,0,0,0,3.036-1.427c1.577-1.333,1.987-3.548,2.3-5.583l.733-4.731a14.913,14.913,0,0,0,.268-3.446,15.344,15.344,0,0,0-.922-3.714l-1.214-3.548a1.671,1.671,0,0,0-.536-.883,1.577,1.577,0,0,0-.922-.166c-1.159.055-4.084.481-4.644,1.7C958.171,704.344,959.211,707.75,959.29,709Z" transform="translate(-241.696 -217.071)"/><path class="d" d="M927.549,584.632a.3.3,0,0,0,0,.087,3.942,3.942,0,0,0,.442,1.34,19.381,19.381,0,0,1,1.7,6.9,5.839,5.839,0,0,0,.229,1.743,9.3,9.3,0,0,0,.891,1.53,16.225,16.225,0,0,1,1.648,5.748,45.432,45.432,0,0,0,2.011,7.538c1.206,3.335,2.831,6.757,2.279,10.25a10.255,10.255,0,0,0-.315,2.523,7.286,7.286,0,0,0,.986,2.657,24.664,24.664,0,0,1,1.112,2.46c.323.836.67,1.821.938,2.744.323,1.135.544,2.476-.205,3.383a3.843,3.843,0,0,0-.607.741,1.972,1.972,0,0,0,0,1.277q.639,2.7,1.372,5.385c.378,1.4.789,2.8,1.191,4.195,3.044,10.2,6.481,20.3,8.523,30.751.292,1.506,2.216,2.586,3.714,2.909a4.841,4.841,0,0,0,4.266-1.143,2.627,2.627,0,0,0,.3-.292c1.577-1.687,1.79-4.274,1.679-6.607-.528-10.755-5.945-20.6-8.523-31.05a59.8,59.8,0,0,1-1.672-11.52c-.607-12.986-.844-26.706,2.823-39.172.789-2.594,1.664-5.519.292-7.885a7.69,7.69,0,0,0-4.053-2.965,26.1,26.1,0,0,0-20.256.52,6.317,6.317,0,0,0,0,.788,7.987,7.987,0,0,1-.41,3.58,4.391,4.391,0,0,0-.355,1.585Z" transform="translate(-235.936 -190.597)"/><path class="d" d="M980.876,714.195l.686,2.5a27.92,27.92,0,0,0,1.459,4.4,19.173,19.173,0,0,1,1.3,2.98,9.641,9.641,0,0,1,.221,2.563,7.83,7.83,0,0,1-.355,2.421,6.048,6.048,0,0,1-3.54,3.359,16.717,16.717,0,0,1-4.912.923,3.943,3.943,0,0,1-1.293,0,3.6,3.6,0,0,1-1.254-.654c-2.279-1.672-3.453-4.731-3.659-7.577a9.329,9.329,0,0,1,.386-1.932c.174-.237,1.9.733,1.159,1.577-1.088,1.206,2.105.583,3.729.481a14.978,14.978,0,0,0,2.113-.347l2.626-.56c.859-.189,1.853-.481,2.153-1.309s-.363-1.806-.875-2.6c-1.38-2.121-1.727-4.731-2.05-7.23-.063-.5-.678-3.69.591-2.7a3.548,3.548,0,0,1,.883,1.664C980.49,712.783,980.679,713.485,980.876,714.195Z" transform="translate(-244.816 -218.927)"/><path class="h" d="M942.232,646.7c.788-.907.528-2.247.205-3.375-.126-.426-.252-.844-.394-1.262l10.321-3.485c0,.922.079,1.845.118,2.768a59.967,59.967,0,0,0,1.672,11.528c2.578,10.447,8,20.287,8.523,31.034.118,2.476-.142,5.243-1.971,6.915a4.881,4.881,0,0,1-4.273,1.135c-1.49-.323-3.422-1.4-3.714-2.91C950.676,678.6,947.2,668.5,944.195,658.3q-1.419-4.731-2.562-9.588a2,2,0,0,1,0-1.269,3.847,3.847,0,0,1,.6-.741Z" transform="translate(-238.893 -203.757)"/><path class="g" d="M976.552,699.713c.789,1.4,2.058,2.649,2.247,4.258a24.4,24.4,0,0,1-.181,2.925,9.174,9.174,0,0,0,.434,2.365q1.5,5.441,3.469,10.739a2.941,2.941,0,0,1,.276,1.459,2.57,2.57,0,0,1-1.711,1.7c-2.452,1.049-5.228.978-7.885.867a4.124,4.124,0,0,1-2.224-.52,3.867,3.867,0,0,1-1.254-3.1c-.181-3.351.386-6.718,0-10.053-.126-1.214-.386-2.413-.576-3.611a10.591,10.591,0,0,1,.158-5.046,11.549,11.549,0,0,1,1.884-3.154,9.873,9.873,0,0,1,2.626-2.618c.315-.189,1.206-.788,1.522-.4.166.181.095.67.118.9a8.984,8.984,0,0,0,.181,1.041A8.556,8.556,0,0,0,976.552,699.713Z" transform="translate(-244.687 -215.775)"/><path class="h" d="M947.884,588.815a2.855,2.855,0,0,1,.2,2.365c-.347,1.427-.915,2.791-1.38,4.187a58.244,58.244,0,0,0-1.782,7.609c-.434,2.326-1.348,4.912-.97,7.254a51.682,51.682,0,0,0-5.519,17.2c-.213,1.538,3.209,3.532,3.154,5.086-.126,3.091-2.594,3.335-.789,5.8.087.126-.686,2.886-.583,3,.741.891,1.679,1.577,2.476,2.436a18.637,18.637,0,0,1,2.61,3.824c4.731,8.5,11.5,18.135,9.406,27.6a1.687,1.687,0,0,0,.9,1.7,4.645,4.645,0,0,0,1.987.457h.331c1.577-1.687,1.79-4.274,1.679-6.607-.528-10.755-5.945-20.6-8.523-31.05a59.806,59.806,0,0,1-1.672-11.52c-.607-12.986-.844-26.706,2.823-39.172.789-2.594,1.664-5.519.292-7.885a7.69,7.69,0,0,0-4.053-2.965,26.1,26.1,0,0,0-20.256.52,6.317,6.317,0,0,0,0,.788,7.988,7.988,0,0,1-.41,3.58,4.393,4.393,0,0,0-.4,1.577s-.189-2.089-.189-2.058c4.218.607,8.618,3.359,12.837,3.942a29.317,29.317,0,0,1,6.434,1.419A2.791,2.791,0,0,1,947.884,588.815Z" transform="translate(-235.865 -190.593)"/><path class="d" d="M976.871,561.964c.568,1.806,1.072,3.627,1.5,5.464a4.462,4.462,0,0,1,.15,1.955,17.19,17.19,0,0,0-.583,1.806c-.095.97.576,1.821.954,2.728.954,2.3-.063,4.9-1.064,7.175l-2.988,6.757-2.444,5.519c-.725,1.648-1.451,3.3-2.153,4.96a161.26,161.26,0,0,0-7.79,23.347,2.863,2.863,0,0,1-.4,1.017c-.418.552-1.167.71-1.774,1.049a3.3,3.3,0,0,0-.363,5.275c-.347,4.061,2.7,7.979,4.266,11.74,3.6,8.673,2.949,18.387,4.195,27.676l-1.4-.789c-1.348.615-1.3,2.523-2.019,3.808-1.088,1.94-3.745,2.216-5.961,2.066a4.652,4.652,0,0,1-1.995-.457,1.68,1.68,0,0,1-.891-1.7c2.089-9.462-4.731-19.121-9.414-27.6a18.374,18.374,0,0,0-2.61-3.816c-.788-.844-1.727-1.577-2.476-2.444-2.074-2.492-2.365-6.008-2.2-9.249a51.818,51.818,0,0,1,5.89-21.841c-.371-2.365.544-4.928.978-7.254a56.965,56.965,0,0,1,1.774-7.609c.465-1.4,1.033-2.76,1.38-4.187a2.855,2.855,0,0,0-.189-2.365,2.775,2.775,0,0,0-1.333-.859,29.666,29.666,0,0,0-6.434-1.419l-14.492-2.082a36.861,36.861,0,0,1-.615-9.288,14.279,14.279,0,0,1,10.25-11.953,2.153,2.153,0,0,1,1.884.118,75.561,75.561,0,0,1,38.375,2.452Z" transform="translate(-235.663 -186.734)"/><path class="f" d="M968.187,461.726a7.1,7.1,0,0,0,.631,4.147,6.48,6.48,0,0,0,1.648,1.821,12.213,12.213,0,0,0,4.778,2.365,5.088,5.088,0,0,1,2.854,1.254c1.017,1.23.339,3.083-.528,4.423a11.312,11.312,0,0,1-6.26,5.18c-2.137.583-4.423.229-6.607.607-1.577.276-3.075.93-4.636,1.3a13.68,13.68,0,0,1-12.616-3.509c2.318-1.782,4.731-3.682,5.937-6.355a9.036,9.036,0,0,0,.449-6.071c-.56-1.979-1.814-3.942-1.419-5.929s2.365-3.406,4.344-4.092a27.866,27.866,0,0,1,5.464-1.1c1.017-.142,7.506-1.577,7.885-.867.229.4-1.12,2.768-1.285,3.288A12.653,12.653,0,0,0,968.187,461.726Z" transform="translate(-240.146 -164.863)"/><path class="h" d="M968.187,461.726a7.1,7.1,0,0,0,.631,4.147,6.48,6.48,0,0,0,1.648,1.821,12.213,12.213,0,0,0,4.778,2.365,5.088,5.088,0,0,1,2.854,1.254c1.017,1.23.339,3.083-.528,4.423a11.312,11.312,0,0,1-6.26,5.18c-2.137.583-4.423.229-6.607.607-1.577.276-3.075.93-4.636,1.3a13.68,13.68,0,0,1-12.616-3.509c2.318-1.782,4.731-3.682,5.937-6.355a9.036,9.036,0,0,0,.449-6.071c-.56-1.979-1.814-3.942-1.419-5.929s2.365-3.406,4.344-4.092a27.866,27.866,0,0,1,5.464-1.1c1.017-.142,7.506-1.577,7.885-.867.229.4-1.12,2.768-1.285,3.288A12.653,12.653,0,0,0,968.187,461.726Z" transform="translate(-240.146 -164.863)"/><circle class="f" cx="13.16" cy="13.16" r="13.16" transform="translate(706.721 275.275)"/><path class="e" d="M963.185,479.317l-8.918,1.5a33.409,33.409,0,0,1-6.671.67,19.077,19.077,0,0,0-3.674,0c-.844.142-1.648.465-2.5.568-1.041.134-2.1-.063-3.154.071-1.94.244-3.532,1.577-5.007,2.87-1.727,1.5-3.58,3.256-3.706,5.519a1.577,1.577,0,0,0,.1.788,2.311,2.311,0,0,0,.662.694c1.64,1.34,2.563,3.351,3.73,5.125a19.8,19.8,0,0,0,4.431,4.778c.394-.252,1.135.41.962.836s-.591.733-.733,1.175c-.315,1.009.93,1.75,1.443,2.681s.26,2.1.315,3.154.528,2.31.686,3.493c.355,2.736-.993,5.622,0,8.216a2.578,2.578,0,0,0-2.563,1.995,7.53,7.53,0,0,0,.1,3.5,4.817,4.817,0,0,0-2.365,4.4.788.788,0,0,1-.568,1.049,4.439,4.439,0,0,0-2.736,4.124,2.028,2.028,0,0,1-.079.875,1.925,1.925,0,0,1-.647.662,5.141,5.141,0,0,0-1.916,4.021,2.949,2.949,0,0,0,1.356,2.633,24.538,24.538,0,0,0,5.992,1.782,53.846,53.846,0,0,0,5.8,1.025,52.038,52.038,0,0,0,5.433.166l11.938-.047c3.351,0,6.71,0,10.061-.252,3.154-.205,6.308-.6,9.343.221.378-.639-.229-1.38-.6-2.026a6.79,6.79,0,0,1-.686-2.807l-.749-7.956a13.977,13.977,0,0,1-.063-3.3c.166-1.175.607-2.287.836-3.446.434-2.231,0-4.534.142-6.8a30.363,30.363,0,0,1,1.041-5.922l2.365-9.738a37.6,37.6,0,0,1,1.167-4.881q2.72-7.017,5.716-13.909a1.435,1.435,0,0,0-.1-1.23l-1.971-3.54a22.6,22.6,0,0,0-1.806-2.878,11.393,11.393,0,0,0-6.663-4.092,11.78,11.78,0,0,0-7.743,1.151c-.923.489-1.774,1.1-2.712,1.577A11.1,11.1,0,0,1,963.185,479.317Z" transform="translate(-236.358 -169.128)"/><path class="e" d="M927.79,491.5l-3.107,4.147a5.285,5.285,0,0,0-.725,1.143c-.473,1.088-.213,2.365-.465,3.517a7.332,7.332,0,0,1-.907,2.105,48.553,48.553,0,0,1-3.942,5.882,10.541,10.541,0,0,1-2.452,2.429,4.068,4.068,0,0,1-3.312.583,2.073,2.073,0,0,1,1.088.986,12.032,12.032,0,0,1,.788,7.7,7.884,7.884,0,0,1-.867,2.523,3.785,3.785,0,0,1-1.979,1.711,2.917,2.917,0,0,0,3.438,2.468,5.747,5.747,0,0,0,1.7-.852l4.991-3.233a13.265,13.265,0,0,0,2.326-1.743c.93-.93,1.577-2.105,2.492-3.067,1.577-1.632,3.816-2.61,4.912-4.581a21.556,21.556,0,0,0,1.222-4.037c.276-.875.686-1.711.946-2.594a11.591,11.591,0,0,0-1.025-8.311C931.63,495.71,929.635,493.676,927.79,491.5Z" transform="translate(-232.628 -172.646)"/><path class="c" d="M946.528,439.764a17.25,17.25,0,0,1,4.628-4.818,15.8,15.8,0,0,1,8.35-3.532,8.878,8.878,0,0,1,3.753.615c.063-3.722.986-6.19,3.3-5.819,4.329.694,9.138,2.365,10.794,6.418,1.246,3.067.284,6.513,0,9.809a7.445,7.445,0,0,0,.095,2.61,9.155,9.155,0,0,0,2.287,3.588,19.114,19.114,0,0,1,3.3,4.613,6.718,6.718,0,0,1,.221,5.519,4.013,4.013,0,0,0-.544,1.451c-.055,1.128,1.12,1.837,1.987,2.555,3.248,2.689,3.107,7.585,3.154,11.827a59.7,59.7,0,0,0,5.646,24.947,7.625,7.625,0,0,1-8.531-1.112,28.731,28.731,0,0,0,1.94,5.582c-2.752,1.333-6.063-.859-7.435-3.58s-1.577-5.9-2.523-8.784-2.752-5.433-3.54-8.342a8.018,8.018,0,0,0-.986-2.791,7.1,7.1,0,0,0-1.735-1.474c-2.831-2.034,1.34-17.441.237-20.745-1.648.355-4.676-7.593-6.4-15.675a8.161,8.161,0,0,1-3.745.378,4.511,4.511,0,0,0-1.34-.095,3.564,3.564,0,0,0-1.167.473,28.794,28.794,0,0,1-3.982,2.05c-2.854,1.064-6,.923-9.036.788a8.957,8.957,0,0,1,1.277-6.458Z" transform="translate(-239.65 -158.828)"/><path class="d" d="M946.528,439.764a17.25,17.25,0,0,1,4.628-4.818,15.8,15.8,0,0,1,8.35-3.532,8.878,8.878,0,0,1,3.753.615c.063-3.722.986-6.19,3.3-5.819,4.329.694,9.138,2.365,10.794,6.418,1.246,3.067.284,6.513,0,9.809a7.445,7.445,0,0,0,.095,2.61,9.155,9.155,0,0,0,2.287,3.588,19.114,19.114,0,0,1,3.3,4.613,6.718,6.718,0,0,1,.221,5.519,4.013,4.013,0,0,0-.544,1.451c-.055,1.128,1.12,1.837,1.987,2.555,3.248,2.689,3.107,7.585,3.154,11.827a59.7,59.7,0,0,0,5.646,24.947,7.625,7.625,0,0,1-8.531-1.112,28.731,28.731,0,0,0,1.94,5.582c-2.752,1.333-6.063-.859-7.435-3.58s-1.577-5.9-2.523-8.784-2.752-5.433-3.54-8.342a8.018,8.018,0,0,0-.986-2.791,7.1,7.1,0,0,0-1.735-1.474c-2.831-2.034,1.34-17.441.237-20.745-1.648.355-4.676-7.593-6.4-15.675a8.161,8.161,0,0,1-3.745.378,4.511,4.511,0,0,0-1.34-.095,3.564,3.564,0,0,0-1.167.473,28.794,28.794,0,0,1-3.982,2.05c-2.854,1.064-6,.923-9.036.788a8.957,8.957,0,0,1,1.277-6.458Z" transform="translate(-239.65 -158.828)"/><g class="i" transform="translate(707.982 267.32)"><path d="M997.324,499.516a59.83,59.83,0,0,1-5.646-24.947c0-4.218.118-9.115-3.154-11.827-.867-.718-2.042-1.427-1.995-2.555a4.031,4.031,0,0,1,.552-1.451,6.749,6.749,0,0,0-.221-5.519,19.116,19.116,0,0,0-3.3-4.613,9.17,9.17,0,0,1-2.294-3.588,7.837,7.837,0,0,1-.095-2.61c.323-3.3,1.293-6.741,0-9.809-1.577-3.942-6.158-5.614-10.376-6.347a2.365,2.365,0,0,1,1.135-.071c4.329.694,9.138,2.365,10.794,6.418,1.246,3.067.284,6.513,0,9.809a7.443,7.443,0,0,0,.095,2.61,9.153,9.153,0,0,0,2.286,3.588,19.112,19.112,0,0,1,3.3,4.613,6.718,6.718,0,0,1,.221,5.519,4.012,4.012,0,0,0-.544,1.451c-.055,1.128,1.12,1.837,1.987,2.555,3.248,2.689,3.107,7.585,3.154,11.827a59.7,59.7,0,0,0,5.645,24.947,7.372,7.372,0,0,1-4.179.788A7.136,7.136,0,0,0,997.324,499.516Z" transform="translate(-953.067 -426.141)"/><path d="M995.57,523.372a28.212,28.212,0,0,1-1.94-5.582,7.2,7.2,0,0,0,1.869,1.238,29.337,29.337,0,0,0,1.577,4.344,4.131,4.131,0,0,1-2.547.323,4.007,4.007,0,0,0,1.041-.323Z" transform="translate(-957.896 -445.527)"/><path d="M965.5,433.438a9.083,9.083,0,0,0-2.507-.591h.3a8.815,8.815,0,0,1,2.224.166C965.505,433.138,965.5,433.28,965.5,433.438Z" transform="translate(-951.415 -427.557)"/><path d="M953.435,449.919a28.875,28.875,0,0,0,3.99-2.05,3.5,3.5,0,0,1,1.167-.473,4.3,4.3,0,0,1,1.23.071,4.936,4.936,0,0,0-.852.4,28.786,28.786,0,0,1-3.982,2.05,17.962,17.962,0,0,1-6.678.867A15.824,15.824,0,0,0,953.435,449.919Z" transform="translate(-948.31 -430.634)"/><path d="M967.294,447l.071.355a7.723,7.723,0,0,1-1.955.055A8.671,8.671,0,0,0,967.294,447Z" transform="translate(-951.927 -430.553)"/></g><path class="f" d="M1000.167,511.733a4.81,4.81,0,0,0,1.293,3.848,8.566,8.566,0,0,0,1.829,1.348,4.967,4.967,0,0,0,2.176.789,4.108,4.108,0,0,0,2.783-1.214c2.294-2.011,3.438-4.991,4.494-7.845a58.861,58.861,0,0,0,3.4-11.6c.647-4.281.371-8.721,1.577-12.876-1.088-2.176-1.782-4.573-3.02-6.671a31.426,31.426,0,0,1-2.082-3.9,13.484,13.484,0,0,1-.371-9,1.214,1.214,0,0,0-1.435.071,3.019,3.019,0,0,0-.867,1.262,11.175,11.175,0,0,0-.859,5.291,2.105,2.105,0,0,1-.15,1.293,1.624,1.624,0,0,1-1.4.591,12.454,12.454,0,0,1-3.249-.583,30.112,30.112,0,0,0-10.006-.828,4.731,4.731,0,0,0-1.955.473,1.814,1.814,0,0,0-1,1.632l8,1.175a3.3,3.3,0,0,1,1.687.576,1.143,1.143,0,0,1,.229,1.577,3.152,3.152,0,0,1-.552.363,1.648,1.648,0,0,0,.063,2.633,1.687,1.687,0,0,1,.544.378c.331.442-.1,1.017-.244,1.577a1.956,1.956,0,0,0,.962,1.995,7.032,7.032,0,0,0,2.231.749,23.513,23.513,0,0,1,4.573,1.577,2.508,2.508,0,0,1,1.191.891,2.673,2.673,0,0,1-.142,2.239l-2.082,5.614c-.331.883-.654,1.758-1.064,2.61-.528,1.1-1.183,2.129-1.727,3.225a32.185,32.185,0,0,0-1.3,3.154C1002.619,506.987,1000.529,508.7,1000.167,511.733Z" transform="translate(-249.425 -166.915)"/><path class="j" d="M539.39,249.17V513.633a87.6,87.6,0,0,0-27.3-4.211c-39.321,0-71.255,27.825-71.255,67.147s31.933,66.839,71.255,66.839,71.452-28.953,71.452-70.963V388.794h207.37v124.84a87.56,87.56,0,0,0-27.3-4.211c-39.321,0-71.255,27.825-71.255,67.147s31.933,66.839,71.255,66.839,71.452-28.953,71.452-70.963V249.17Zm251.524,98.56H583.544v-54.4h207.37Z" transform="translate(-132.985 -121.388)"/><path class="j" d="M272.818,212.17V389.656a67.139,67.139,0,1,0,33.589,58.032V279.427h67.336V212.17Z" transform="translate(-76.148 -113.562)"/><path class="j" d="M262.559,734.446a42.844,42.844,0,0,0-12.34-4.368A56.423,56.423,0,0,0,259.453,728c8.019-2.539,12.064-5.945,9.028-7.609s-12-.962-20.019,1.577a30.91,30.91,0,0,0-7.688,3.414c-.828-1.758-3.083-3.8-6.6-5.732-7.1-3.942-16.7-5.89-21.384-4.408s-2.7,5.85,4.423,9.769a42.678,42.678,0,0,0,11.039,4.108,64.926,64.926,0,0,0-7.609,1.348c-8.728,2.1-13.775,5.259-11.275,7.1s11.614,1.577,20.343-.5a38.018,38.018,0,0,0,9.146-3.233c.718,1.813,3.012,3.942,6.718,6,7.1,3.942,16.7,5.89,21.383,4.408S269.655,738.357,262.559,734.446Z" transform="translate(-83.89 -219.869)"/><path class="j" d="M333.7,664.092a20.9,20.9,0,0,0-5.985-2.121,28.164,28.164,0,0,0,4.479-1c3.9-1.238,5.858-2.886,4.384-3.7s-5.827-.465-9.722.788a15.513,15.513,0,0,0-3.729,1.656,7.512,7.512,0,0,0-3.2-2.783c-3.461-1.9-8.113-2.854-10.384-2.137s-1.309,2.846,2.145,4.731a20.666,20.666,0,0,0,5.377,1.987,32.314,32.314,0,0,0-3.7.662c-4.234,1.009-6.686,2.547-5.472,3.43s5.638.788,9.872-.244a18.749,18.749,0,0,0,4.447-1.577,7.084,7.084,0,0,0,3.256,2.909c3.461,1.9,8.106,2.862,10.384,2.145S337.165,665.992,333.7,664.092Z" transform="translate(-104.8 -207.136)"/><path class="j" d="M164.928,590.957a13.112,13.112,0,0,0-3.769-1.325,16.414,16.414,0,0,0,2.823-.631c2.436-.789,3.666-1.806,2.744-2.31s-3.643-.292-6.079.481a9.683,9.683,0,0,0-2.365,1.033,4.612,4.612,0,0,0-2-1.735c-2.16-1.191-5.07-1.79-6.5-1.34s-.788,1.774,1.348,2.965a12.841,12.841,0,0,0,3.367,1.246,19.419,19.419,0,0,0-2.318.418c-2.649.631-4.187,1.577-3.43,2.145s3.532.481,6.182-.15a11.777,11.777,0,0,0,2.783-.986,4.392,4.392,0,0,0,2.034,1.821c2.168,1.191,5.078,1.79,6.5,1.34S167.088,592.147,164.928,590.957Z" transform="translate(-71.162 -192.42)"/><path class="k" d="M367.536,212.17v56.218H300.2V436.65a67.233,67.233,0,0,1-108.96,52.741,67.241,67.241,0,0,0,120-41.7V279.427h67.336V212.17Z" transform="translate(-80.191 -113.562)"/><path class="l" d="M173.87,228.017l.229,1.719,7.451,1.057s.607-.457,1.577-1.08a23.159,23.159,0,0,1,7.254-3.375c3.9-.788,16.314-6.347,12.316-6.71s-3.588.465-3.588.465-4.408-4.329-8.957-.371c-3.454,3-11.039,6.237-14.5,7.617C174.548,227.773,173.87,228.017,173.87,228.017Z" transform="translate(-76.517 -114.807)"/><path class="d" d="M208.666,205.379a12.615,12.615,0,0,1,3.572-.915,4.345,4.345,0,0,1,3.4,1.135c.481.5.788,1.135,1.262,1.64,2.271,2.429,6.678.615,9.414,2.5,1.679,1.167,2.2,3.367,2.8,5.33s1.687,4.116,3.69,4.534a10.943,10.943,0,0,0,2.91-.11,2.862,2.862,0,0,1,2.618.962c.93,1.411-.355,3.769.993,4.778,1.206.891,3.39-.355,4.234.883a1.845,1.845,0,0,1-.292,2.05,14.246,14.246,0,0,0-1.372,1.719,2.6,2.6,0,0,0,2.563,3.8c.852-.087,1.758-.568,2.5-.15a1.766,1.766,0,0,1,.788,1.4,3.666,3.666,0,0,1-3.3,3.856c-1.451.095-2.783-.694-4.076-1.356s-2.815-1.222-4.155-.67a6.418,6.418,0,0,0-1.672,1.175,18.3,18.3,0,0,1-5.141,3.043c-1.64.647-3.548,1.033-5.125.229-1.774-.907-2.689-3.114-4.565-3.785s-4.021.583-5.819,1.648-4.2,1.955-5.827.647c-1.75-1.411-1.214-4.242-2.279-6.221a6.11,6.11,0,0,0-1.711-1.884c-1.2-.923-2.563-1.616-3.769-2.523a6.308,6.308,0,0,1-2.57-3.611c-.355-1.79.5-3.58,1.467-5.125s2.1-3.059,2.413-4.849c.237-1.34,0-2.736.308-4.061a5.007,5.007,0,0,1,3.249-3.43c.883-.3,1.041-.221,1.49-1A3.154,3.154,0,0,1,208.666,205.379Z" transform="translate(-81.548 -111.927)"/><g class="i" transform="translate(116.117 109.071)"><path d="M249.5,225.44a6.71,6.71,0,0,1,.142,2.365A6.394,6.394,0,0,1,249.5,225.44Z" transform="translate(-208.62 -225.44)"/><path d="M253.666,235.86a2.577,2.577,0,0,0-.268.867,2.665,2.665,0,0,1,.095-2.208,14.029,14.029,0,0,1,1.372-1.711,2.91,2.91,0,0,0,.394-.788l.063.071a1.845,1.845,0,0,1-.284,2.042,14.094,14.094,0,0,0-1.372,1.727Z" transform="translate(-209.415 -226.832)"/><path d="M200.153,233.347c1.206.915,2.563,1.577,3.761,2.531a6.008,6.008,0,0,1,1.711,1.884c1.064,1.979.528,4.81,2.279,6.221,1.624,1.309,4.037.426,5.835-.647s3.848-2.365,5.811-1.648,2.791,2.878,4.573,3.785c1.577.788,3.477.41,5.125-.229a18.371,18.371,0,0,0,5.133-3.044,6.781,6.781,0,0,1,1.672-1.183c1.348-.544,2.87,0,4.163.678a8,8,0,0,0,4.069,1.356,3.706,3.706,0,0,0,3.272-3.241,2.365,2.365,0,0,1,.173.694,3.659,3.659,0,0,1-3.272,3.879c-1.443.095-2.783-.694-4.069-1.348s-2.815-1.222-4.163-.678a6.964,6.964,0,0,0-1.672,1.175,18.4,18.4,0,0,1-5.133,3.051c-1.64.639-3.556,1.025-5.125.229-1.782-.907-2.689-3.114-4.573-3.785s-4.021.576-5.811,1.648-4.21,1.955-5.835.639c-1.75-1.411-1.214-4.234-2.279-6.221a6.071,6.071,0,0,0-1.711-1.877c-1.191-.922-2.555-1.616-3.761-2.531a6.308,6.308,0,0,1-2.578-3.611,4.265,4.265,0,0,1-.079-.946,6.592,6.592,0,0,0,2.484,3.217Z" transform="translate(-197.668 -226.432)"/></g><path class="m" d="M204.144,286.123l-2.7.576s2.665,4.384,6.773,1.506S204.144,286.123,204.144,286.123Z" transform="translate(-82.348 -129.183)"/><path class="k" d="M204.144,286.123l-2.7.576s2.665,4.384,6.773,1.506S204.144,286.123,204.144,286.123Z" transform="translate(-82.348 -129.183)"/><path class="l" d="M279.32,336.218s3.753,1.94,7.246,4.187c2.507,1.577,4.881,3.367,5.653,4.684,1.861,3.154,10.9,6.576,10.9,6.576l8.973,6.828c2.113.7,4.171,3.272,5.015,4.423.252.347.4.568.4.568l3.6-.465,1.892-2.46s.481-5.425-3.256-5.362a5.141,5.141,0,0,1-2.105-.544c-4.021-1.774-9.643-7.372-9.643-7.372s-9.556-11.938-12.419-12.332a4.734,4.734,0,0,1-.9-.229c-2.91-1.017-7.1-4.77-7.1-4.77Z" transform="translate(-98.822 -138.475)"/><path class="l" d="M232.26,377.937c.954,5.732,5.3,16.692,6.694,18.979,1.735,2.831,2.641,8.5,2.641,8.5l.513,3.942a4.573,4.573,0,0,0,.568,1.53,8.34,8.34,0,0,0,.5.788l7.2-2.216s-.418-1.656-1.049-3.556-1.577-4.289-2.476-5.172c-1.758-1.727-2.019-7.822-2.019-7.822s-1.467-11.717-1.916-13.191a20.344,20.344,0,0,1-.788-4.321c-.071-.788-.118-1.687-.126-2.7a55.269,55.269,0,0,0-1.135-8.673l-8.4,1.522-.221,9.391a6.26,6.26,0,0,0,.008,3Z" transform="translate(-88.828 -145.681)"/><path class="k" d="M327.25,369.543c.252.347.4.568.4.568l3.6-.465,1.892-2.46s.481-5.425-3.256-5.362a5.141,5.141,0,0,1-2.105-.544c-.308,1.624,1.514,2.973,1.514,2.973s.788.552.576,3.1C329.749,369.086,328.212,369.457,327.25,369.543Z" transform="translate(-108.96 -145.102)"/><path class="n" d="M326.75,367.92c.237.875,2.507,2.16,4.084,2.965.788.394,1.38.67,1.5.733.363.181,2.271-1.94,2.531-3.651s4.81-7.033,4.81-7.033a19.081,19.081,0,0,0,1.687-6.663c.173-2.326-.788-2.515-1.932-1.987a7.641,7.641,0,0,0-2.16,1.7,5.772,5.772,0,0,1-2.8,1.451,13.7,13.7,0,0,0-4.029,1.719c-1.1.71-2.176,1.577-2.365,2.365-.418,1.679,1.49,3.1,1.49,3.1s.788.552.576,3.1S326.726,367.841,326.75,367.92Z" transform="translate(-108.854 -143.148)"/><path class="k" d="M331.93,370.885c.788.394,1.38.67,1.5.733.363.181,2.271-1.94,2.531-3.651s4.81-7.033,4.81-7.033a19.08,19.08,0,0,0,1.687-6.663c.173-2.326-.788-2.515-1.932-1.987-.189,1.845-.654,5.433-1.577,7.3C337.8,361.809,333.184,368.953,331.93,370.885Z" transform="translate(-109.95 -143.148)"/><path class="k" d="M245.517,421.956l-.071.134a8.334,8.334,0,0,0,.5.789l7.2-2.216s-.418-1.656-1.049-3.556c-2.846-.789-6.931,4.187-6.931,4.187Z" transform="translate(-91.598 -156.893)"/><path class="n" d="M244.944,427.41s6.008,2.105,8.673,1.782c2.058-.244,2.145-1.2,2-3.154-.047-.631-.11-1.356-.15-2.192-.134-3.469-1.53-4.171-1.53-4.171-2.287-5.992-8.87,2.05-8.87,2.05l.339.662a7.254,7.254,0,0,0-.67,3.272,9.557,9.557,0,0,0,.205,1.75Z" transform="translate(-91.506 -156.984)"/><path class="k" d="M244.945,429.61s6.008,2.105,8.673,1.782c2.058-.244,2.145-1.2,2-3.154a6.363,6.363,0,0,1-4.9,1.4,19.261,19.261,0,0,1-5.985-1.782,9.557,9.557,0,0,0,.205,1.75Z" transform="translate(-91.507 -159.185)"/><path class="l" d="M207.23,242.4l2.365,10.25.481,2.113,4.345.552,4.479.568,4.873-1.766s1.356-4.636.237-8.113a5.141,5.141,0,0,0-2.255-2.973,5.008,5.008,0,0,1-.938-.725,4.115,4.115,0,0,1-.788-1.128,4.66,4.66,0,0,1-.418-1.632,11.654,11.654,0,0,1,1.506-5.8s-10.329-3.524-9.525-1.246c.528,1.474-.93,4.045-2.019,5.669-.591.875-1.072,1.482-1.072,1.482Z" transform="translate(-83.573 -117.701)"/><circle class="k" cx="8.973" cy="8.973" r="8.973" transform="translate(124.004 102.803)"/><circle class="l" cx="8.973" cy="8.973" r="8.973" transform="translate(123.965 102.472)"/><path class="e" d="M207.781,279.042a21.96,21.96,0,0,0,2.365,5.094l12.529,3.075,8.949-9.367v-.063c-.276-.875-3.69-11.922-1.222-14.642,2.586-2.831,1.577-10.818,1.577-10.818s-4.471-5.141-5.377-6.387-6.71-2.224-6.71-2.224c.292.394.56.788.788,1.128a11.039,11.039,0,0,1,1.427,3.028,4.526,4.526,0,0,1-.118,3.288,3.612,3.612,0,0,0-.307.844c-.978,4.281-5.44,3.682-7.215,3.256-.457-.11-.741-.205-.741-.205l-4.266.134-2.681.087s1.222,21.115.93,22.795a2.7,2.7,0,0,0,.071.978Z" transform="translate(-83.478 -120.233)"/><path class="o" d="M206.855,259.422l7.767-1.017h-.142c-.457-.11-.733-.205-.733-.205l-4.274.134-2.673.087S206.816,258.768,206.855,259.422Z" transform="translate(-83.482 -123.298)"/><path class="o" d="M167.52,209.227l3.367.82,5.306-.694,1.38-1.443Z" transform="translate(-35.434 -43.976)"/><path class="o" d="M174.63,211.244l1.522.371.623-.654Z" transform="translate(-36.938 -44.622)"/><path class="k" d="M207.786,278.232c2,.2,3.848.307,3.848.307l10.321-.386V267.374a15.288,15.288,0,0,0-4.163-2.744c-1.8-.623-3.942-2.531-3.517-7.562a7.21,7.21,0,0,1,.087-.9,11.573,11.573,0,0,0,.095-1.7,9.068,9.068,0,0,0-2.862-6.639,1.367,1.367,0,0,0-.15-.134l-1.679-7.822a1.671,1.671,0,0,0-.339.047c-.591.875-1.072,1.482-1.072,1.482l-1.238,2.712,2.365,10.25-2.681.087s1.222,21.115.93,22.795A2.7,2.7,0,0,0,207.786,278.232Z" transform="translate(-83.482 -119.423)"/><path class="n" d="M208.4,278.616l10.321-.378V267.452a15.383,15.383,0,0,0-4.155-2.744c-1.9-.662-4.163-2.744-3.43-8.46a9.359,9.359,0,0,0-2.744-8.382l-.158-.134-1.679-7.822a3.635,3.635,0,0,0-2.657,1.522,6.662,6.662,0,0,1-.623.915,1.577,1.577,0,0,1-2.074.615c-1.088-.481-5.772-2.46-6.82-.52s-1.246,13.491-1.246,13.491a8.823,8.823,0,0,1,3.036,4.991c.718,3.3,1.916,3.383,1.916,3.383l1.293,9.462s1.175,2.058.3,3.193" transform="translate(-80.593 -119.429)"/><path class="n" d="M206,242.357l1.758,5.267,3.359.292-.158-.134-1.679-7.822a3.635,3.635,0,0,0-2.657,1.522,6.662,6.662,0,0,1-.623.875Z" transform="translate(-83.313 -119.44)"/><path class="k" d="M173.87,230.512l.229,1.719,7.451,1.057s.607-.457,1.577-1.08c-.788-.181-4.494-.986-6.434-1.577-.718-.221-1.191-.41-1.206-.536s.047-.15.166-.244C174.548,230.268,173.87,230.512,173.87,230.512Z" transform="translate(-76.517 -117.302)"/><path class="n" d="M162.247,241s8.445,6.41,13.68,7.443c0,0,7.364,2.176,10.25,4.731l3.154-12.158-1.932-1.333s-2.31,1.427-4.3.954-4.187-.788-4.187-.788a32.375,32.375,0,0,0-5.354-1.467c-1.419-.118-.844-1.963.576-2.941a3.082,3.082,0,0,1,.591-.331,1.829,1.829,0,0,0,2.365.536,5.4,5.4,0,0,0,1.388-1.293h0a18,18,0,0,0,1.577-2.365s-4.408-.946-6.6-1.624c-.718-.221-1.191-.41-1.206-.536-.063-.5,3.942-2.1,3.942-2.1s-3.422-1.656-4.81-.449c0,0,.9.67.173,1.333S162.1,236,162.1,236,157.785,238.123,162.247,241Z" transform="translate(-73.63 -116.665)"/><path class="k" d="M172,235.827l4.676.67a3.084,3.084,0,0,1,.591-.331,1.829,1.829,0,0,0,2.365.536,5.4,5.4,0,0,0,1.388-1.293h0a18.481,18.481,0,0,0,1.277-1.995s-4.408-.946-6.6-1.624Z" transform="translate(-76.121 -117.712)"/><path class="n" d="M172.34,235.345l4.975.718a1.829,1.829,0,0,0,2.365.536c1.427-.788,2.965-3.674,2.965-3.674s-4.408-.946-6.6-1.624Z" transform="translate(-76.193 -117.608)"/><path class="k" d="M287.607,330l-8.287,6.268s3.753,1.94,7.246,4.187c3.051-2.066,5.929-3.942,8.113-5.685C291.77,333.714,287.607,330,287.607,330Z" transform="translate(-98.822 -138.485)"/><path class="k" d="M232.26,377.937a28.079,28.079,0,0,0,6.071-1.451s1.53-.331,3.8-1.088c-.071-.788-.118-1.687-.126-2.7a55.264,55.264,0,0,0-1.135-8.673l-8.4,1.522-.221,9.391a6.26,6.26,0,0,0,.008,3Z" transform="translate(-88.828 -145.681)"/><path class="n" d="M211.987,322.981c1.687,2.5,6.308,13.128,6.308,13.128a45.2,45.2,0,0,0,3.517,5.417c1.837,2.31,3.107,7.506,4.5,11.662s-.41,3.375-.213,5.519,8.09-.631,8.09-.631,16.124-3.548,21.052-13.4,24.608-18.782,28.59-24.325-1.128-3.256-.93-6.26a8.5,8.5,0,0,0-2.074-5.519s-7.427-2.1-8.634-3.556-7.136-5.109-7.136-5.109-5.59-2.421-6.308-3.264-7.341-3.461-9.367-3.942-4.013-3.39-4.013-3.39-1.254.166-3.107-1.632-9.627-3.343-9.627-3.343c-13.27,9.777-22.44,8.413-22.44,8.413l-.213,1.845C202.928,303.782,210.3,320.482,211.987,322.981Z" transform="translate(-83.521 -128.825)"/><path class="k" d="M210.79,294.585s11.472,3.777,22.661-10.2C220.173,294.12,211,292.756,211,292.756Z" transform="translate(-84.326 -128.838)"/><path class="k" d="M235.83,305.589s15.407,22.243,16.361,23.055S236.642,305.313,235.83,305.589Z" transform="translate(-89.623 -133.322)"/><path class="k" d="M226.8,303.43s10.668,16.558,10.455,18.8C237.255,322.227,226.958,306.308,226.8,303.43Z" transform="translate(-87.712 -132.865)"/><path class="k" d="M218.653,309.2s1.971,9.265-.993,14.516Z" transform="translate(-85.779 -134.086)"/><path class="k" d="M213.445,309.88s-.126,8.019-1.025,9.667Z" transform="translate(-84.671 -134.23)"/><path class="k" d="M196.46,213.7l14.169,5.551-5.188.678Z" transform="translate(-41.556 -45.201)"/><path class="k" d="M210.693,220.67c.71.473,1.3,1.222,2.145,1.333a3.375,3.375,0,0,0,1.743-.426,6.409,6.409,0,0,1,4.471-.607c2.082.686,3.225,3.083,5.3,3.793a3.777,3.777,0,0,0,1.987.11,3.848,3.848,0,0,0,1.12-.457,3.6,3.6,0,0,0,1.577-2.239,4.636,4.636,0,0,0-1.577-4.368,9.674,9.674,0,0,0-4.408-2c-4.163-.923-8.492-.615-12.742-.292a1.853,1.853,0,0,0-.993.26c-.647.481-1.75,2.9-1.522,3.722C208.107,220.56,210.575,219.772,210.693,220.67Z" transform="translate(-83.685 -114.201)"/><path class="d" d="M210.643,220.249c.71.465,1.293,1.222,2.145,1.333a3.335,3.335,0,0,0,1.735-.434,6.415,6.415,0,0,1,4.471-.607c2.082.694,3.225,3.091,5.3,3.793a3.706,3.706,0,0,0,1.987.11,3.627,3.627,0,0,0,1.12-.449,3.69,3.69,0,0,0,1.624-2.239,4.66,4.66,0,0,0-1.616-4.376A9.706,9.706,0,0,0,223,215.384c-4.163-.93-8.484-.615-12.742-.3a1.876,1.876,0,0,0-.993.268c-.639.473-1.75,2.9-1.522,3.722C208.057,220.171,210.525,219.335,210.643,220.249Z" transform="translate(-83.675 -114.111)"/><path class="l" d="M281,227.4l1.356,5.48,1.758-1.064,9.556-5.764s7.238-.268,7.8-6.087-8.042-.055-8.5.386-1.5,1.222-1.5,1.222l-8.894,4.967Z" transform="translate(-99.177 -114.664)"/><path class="k" d="M281,229.857l1.356,5.48,1.758-1.064c-.386-2.476-.993-4.731-1.577-5.283Z" transform="translate(-99.177 -117.12)"/><path class="k" d="M221.18,268.378l1.948,11.433,11.528-2.389c-.276-.875-3.69-11.922-1.222-14.642,2.586-2.831,1.577-10.818,1.577-10.818s-4.471-5.141-5.377-6.387-6.71-2.224-6.71-2.224a4.66,4.66,0,0,1-.418-1.632,6.56,6.56,0,0,0-.442,1.222,4.606,4.606,0,0,0,3.075,4.565c.2.095.4.181.623.268.347.142.733.276,1.143.4l.189.055c3.714,1.1,4.518,3.327,4.518,3.327a8.508,8.508,0,0,1,1.687,5.992C232.936,261.061,221.18,268.378,221.18,268.378Z" transform="translate(-86.524 -119.812)"/><path class="n" d="M222,265.578,223.948,277l13.034-2.712s-.394-4.313-1.3-6.063-.725-8.587-.725-8.587c5.519-5.945,2.618-10.779,2.618-10.779s16.219-2.634,16.495-3.154,5.685-3.406,5.685-3.406,5.874-1.506,6.671-2.365a7.1,7.1,0,0,1,.962-.875,2.532,2.532,0,0,1,.315-.2l.434,3.745h.2a5.338,5.338,0,0,0,2.555-1.009c1.34-1.025-.355-12.261-1.656-12.655a1.5,1.5,0,0,0-.749,0,8.469,8.469,0,0,0-2.8,1.514l-.229.181-.079.071s-7.341,2.878-8.807,4.2-12.884,3-12.884,3-5.117,1.214-5.78.481-8.476-1.932-9.131-.788-2.468.938-2.468.938c-1.285-1.482-2.176-.907-2.72-.055a5.953,5.953,0,0,0-.694,1.648c0,2.271,1,3.761,3.7,4.833.41.158.852.315,1.333.457,3.722,1.1,4.518,3.327,4.518,3.327a8.492,8.492,0,0,1,1.7,5.992C233.78,258.261,222,265.578,222,265.578Z" transform="translate(-86.697 -117.098)"/><path class="k" d="M280.192,229a1.214,1.214,0,0,1,.418.047c1.3.394,2.988,11.638,1.648,12.663a5.283,5.283,0,0,1-2.279.986h-.2l-.434-3.745a2.532,2.532,0,0,0-.315.2V239a9.73,9.73,0,0,0-1.853-8.318Z" transform="translate(-98.369 -117.121)"/><path class="n" d="M279.387,238.911l.434,3.745a5.243,5.243,0,0,0,2.783-1.064c1.34-1.025-.355-12.261-1.656-12.655-1.025-.315-2.831.962-3.548,1.506a9.746,9.746,0,0,1,1.987,8.468Z" transform="translate(-98.416 -117.098)"/><path class="n" d="M226.868,247.511l1.869-1.75-4.873-4.731a5.953,5.953,0,0,0-.694,1.648C223.186,244.949,224.171,246.439,226.868,247.511Z" transform="translate(-86.945 -119.666)"/><path class="k" d="M210.56,220.6c.71.465,1.293,1.222,2.145,1.333a3.336,3.336,0,0,0,1.735-.434,6.414,6.414,0,0,1,4.471-.607c2.082.694,3.225,3.091,5.3,3.793a3.706,3.706,0,0,0,1.987.11,3.571,3.571,0,0,0,2.831-3.69,3.738,3.738,0,0,1,0,1.672,3.658,3.658,0,0,1-1.624,2.239,3.548,3.548,0,0,1-1.12.449,3.674,3.674,0,0,1-1.979-.11c-2.082-.7-3.225-3.1-5.306-3.793a6.458,6.458,0,0,0-4.471.607,3.335,3.335,0,0,1-1.735.434c-.844-.11-1.435-.867-2.145-1.333-.118-.915-2.586-.079-2.894-1.175a1.308,1.308,0,0,1,0-.5C208.242,220.434,210.442,219.74,210.56,220.6Z" transform="translate(-83.679 -115.131)"/><path class="k" d="M220.465,253.6s-1.033,2.9.284,3.879c0,0-1.443-3.84-2.279-3.753" transform="translate(-85.951 -122.325)"/><path class="l" d="M301.486,217.76s-6.663,5.764-1.845,6.694S301.486,217.76,301.486,217.76Z" transform="translate(-102.75 -114.744)"/><g class="i" transform="translate(341.411 127.782)"><path d="M789.676,420.25H582.307V603.918c0,41.994-32.13,70.963-71.452,70.963a78.951,78.951,0,0,1-27.455-4.818,76.909,76.909,0,0,0,37.7,9.548c39.321,0,71.452-28.953,71.452-70.963V424.981H789.676Z" transform="translate(-483.4 -285.357)"/><path d="M558.42,266.453h10.25V216.771H765.805V212.04H558.42Z" transform="translate(-459.529 -172.632)"/><path d="M901.3,249.17V567.715c0,41.994-32.13,70.963-71.452,70.963a78.95,78.95,0,0,1-27.455-4.818,76.908,76.908,0,0,0,37.7,9.548c39.321,0,71.452-28.953,71.452-70.963V249.17Z" transform="translate(-550.874 -249.17)"/></g><path class="j" d="M629.6,149.211c5.086,10.51,13.4,22.464,22.811,17.9s16.432-23.93,11.346-34.456-16.866-15.312-26.3-10.747S624.51,138.717,629.6,149.211Z" transform="translate(-172.421 -94.104)"/><path class="j" d="M654.467,186.281s1.837-.308,1.135-1.821a2.809,2.809,0,0,0-.221-.386,4.866,4.866,0,0,1-.7-1.955,7.1,7.1,0,0,1,.087-2.436l-5.007-.331s1.948,1.656,1.719,2.523a.5.5,0,0,1-.229.3.789.789,0,0,1-.331.142l-.378.11c-1.317.465-.788,1.128-.788,1.128C649.925,185.713,654.467,186.281,654.467,186.281Z" transform="translate(-177.154 -106.62)"/><path class="n" d="M651.68,182.85l3.532.489a4.4,4.4,0,0,1-.1-.544c-.9-.039-2.31-.158-3.2-.244a.5.5,0,0,1-.229.3Z" transform="translate(-177.584 -107.297)"/><path class="j" d="M654.467,187.106s1.837-.308,1.135-1.821a5.677,5.677,0,0,1-2.168.087,4.8,4.8,0,0,1-2.894-2.121c-1.317.465-.788,1.127-.788,1.127C649.925,186.538,654.467,187.106,654.467,187.106Z" transform="translate(-177.154 -107.445)"/><path class="k" d="M654.467,187.106s1.837-.308,1.135-1.821a5.677,5.677,0,0,1-2.168.087,4.8,4.8,0,0,1-2.894-2.121c-1.317.465-.788,1.127-.788,1.127C649.925,186.538,654.467,187.106,654.467,187.106Z" transform="translate(-177.154 -107.445)"/><path class="p" d="M652.37,123.757s5.6-.678,7.183,3.051a4.5,4.5,0,0,0-2.011.118,2.855,2.855,0,0,1-1.309.252,7.507,7.507,0,0,0-3.864-3.422Z" transform="translate(-177.73 -94.85)"/><path class="j" d="M659.421,218.276a1.978,1.978,0,0,0,.315-.315,4.266,4.266,0,0,1,1.2-.946,4.208,4.208,0,0,1,.5-.252,7.31,7.31,0,0,1,1.577-.473,6.308,6.308,0,0,1,.788-.087l-.71-3.39v-.047l-.307-1.474a10.7,10.7,0,0,1-.71,1.238c-.363.552-.788,1.08-1.261,1.088a.559.559,0,0,1-.355-.134,1.073,1.073,0,0,1-.221-.284c-.079-.126-.142-.237-.213-.339-.789-1.135-1.285-.426-1.285-.426-.9.323-1.269,1.4-1.4,2.476a1.53,1.53,0,0,1-.047.465,12.384,12.384,0,0,0,.079,2.294S658.175,219.364,659.421,218.276Z" transform="translate(-178.765 -113.376)"/><path class="n" d="M661.882,217.6a4.2,4.2,0,0,1,.5-.252c-.173-.733-.386-1.837-.536-2.7v-.181a.539.539,0,0,0-.047-.26.56.56,0,0,1-.355-.134l.079.528v.213Z" transform="translate(-179.648 -113.964)"/><path class="j" d="M659.421,218.524a5.686,5.686,0,0,1-.662-2.066,4.475,4.475,0,0,1,.15-1.309c.039-.126.071-.252.118-.371a3.84,3.84,0,0,1,.994-1.672c-.789-1.135-1.285-.426-1.285-.426-.9.323-1.269,1.4-1.4,2.476a1.534,1.534,0,0,1-.047.465,12.384,12.384,0,0,0,.079,2.294S658.175,219.612,659.421,218.524Z" transform="translate(-178.765 -113.624)"/><path class="k" d="M659.421,218.524a5.686,5.686,0,0,1-.662-2.066,4.475,4.475,0,0,1,.15-1.309c.039-.126.071-.252.118-.371a3.84,3.84,0,0,1,.994-1.672c-.789-1.135-1.285-.426-1.285-.426-.9.323-1.269,1.4-1.4,2.476a1.534,1.534,0,0,1-.047.465,12.384,12.384,0,0,0,.079,2.294S658.175,219.612,659.421,218.524Z" transform="translate(-178.765 -113.624)"/><path class="j" d="M613.99,169.447a57.767,57.767,0,0,0,13.838,6.789c3.588,1.088,7.025,1.435,9.9.52a9.076,9.076,0,0,0,3.359-1.94,9.579,9.579,0,0,0,1.7-2.018c3.335-5.212,3.272-14.374.631-22.306-1.845-5.519-4.9-10.408-8.933-12.994-9.824-6.308-22.377-4.258-28.038,4.565S604.165,163.139,613.99,169.447Z" transform="translate(-167.435 -96.993)"/><path class="k" d="M613.99,169.447a57.767,57.767,0,0,0,13.838,6.789c3.588,1.088,7.025,1.435,9.9.52a9.076,9.076,0,0,0,3.359-1.94,9.579,9.579,0,0,0,1.7-2.018c3.335-5.212,3.272-14.374.631-22.306-1.845-5.519-4.9-10.408-8.933-12.994-9.824-6.308-22.377-4.258-28.038,4.565S604.165,163.139,613.99,169.447Z" transform="translate(-167.435 -96.993)"/><path class="j" d="M647.309,190.826c1.254,1.75,5.409-.126,5.409-.126s1.411-1.214,0-2.137a3.366,3.366,0,0,0-.386-.221,4.4,4.4,0,0,1-1.254-.891c-.126-.126-.252-.26-.37-.4a7.381,7.381,0,0,1-.883-1.4,5.841,5.841,0,0,1-.308-.733l-4.447,2.365a10.086,10.086,0,0,1,1.4.339c.639.2,1.269.5,1.388.915a.5.5,0,0,1,0,.378.938.938,0,0,1-.213.292,3.9,3.9,0,0,0-.26.292C646.481,190.55,647.309,190.826,647.309,190.826Z" transform="translate(-176.186 -107.798)"/><path class="n" d="M648.58,189.507l3.256-1.435c-.126-.126-.252-.26-.371-.4-.788.426-2.042,1.064-2.854,1.459A.5.5,0,0,1,648.58,189.507Z" transform="translate(-176.928 -108.38)"/><path class="j" d="M647.814,191.8c1.254,1.75,5.409-.126,5.409-.126s1.411-1.214,0-2.137a5.449,5.449,0,0,1-1.806,1.2,4.8,4.8,0,0,1-3.564-.292C646.986,191.527,647.814,191.8,647.814,191.8Z" transform="translate(-176.691 -108.775)"/><path class="k" d="M647.814,191.8c1.254,1.75,5.409-.126,5.409-.126s1.411-1.214,0-2.137a5.449,5.449,0,0,1-1.806,1.2,4.8,4.8,0,0,1-3.564-.292C646.986,191.527,647.814,191.8,647.814,191.8Z" transform="translate(-176.691 -108.775)"/><path class="p" d="M618.28,138.6S622.7,135.1,626,137.452a4.542,4.542,0,0,0-1.648,1.151,2.863,2.863,0,0,1-.993.9A7.514,7.514,0,0,0,618.28,138.6Z" transform="translate(-170.519 -97.585)"/><g class="i" transform="translate(488.724 72.88)"><path d="M678.095,184.452l-1.025-4.912a9.456,9.456,0,0,1-.71,1.238,8.878,8.878,0,0,0,.946,3.769,5.523,5.523,0,0,1,.788-.095Z" transform="translate(-671.528 -179.54)"/><path d="M672.415,186.534a2.368,2.368,0,0,0,.315-.315,4.407,4.407,0,0,1,1.2-.954,4.2,4.2,0,0,1,.5-.252,6.758,6.758,0,0,1,1.577-.465,5.519,5.519,0,0,1,.789-.095l-1.025-4.912a9.454,9.454,0,0,1-.71,1.238c-.363.552-.828,1.088-1.262,1.1a.576.576,0,0,1-.347-.142.97.97,0,0,1-.245-.252c-.071-.126-.142-.237-.205-.339-.788-1.135-1.293-.418-1.293-.418-2.026.733-1.372,5.236-1.372,5.236S671.145,187.614,672.415,186.534Z" transform="translate(-670.232 -179.54)"/><path d="M674.793,185.848a4.2,4.2,0,0,1,.5-.252c-.205-.859-.457-2.255-.623-3.154a.575.575,0,0,1-.347-.142Z" transform="translate(-671.097 -180.124)"/><path d="M672.421,186.783a5.777,5.777,0,0,1-.662-2.074,4.842,4.842,0,0,1,1.269-3.351c-.788-1.135-1.293-.418-1.293-.418-2.026.733-1.372,5.236-1.372,5.236S671.151,187.863,672.421,186.783Z" transform="translate(-670.239 -179.789)"/><path class="k" d="M672.421,186.783a5.777,5.777,0,0,1-.662-2.074,4.842,4.842,0,0,1,1.269-3.351c-.788-1.135-1.293-.418-1.293-.418-2.026.733-1.372,5.236-1.372,5.236S671.151,187.863,672.421,186.783Z" transform="translate(-670.239 -179.789)"/></g><path class="j" d="M671.6,185.3a1.978,1.978,0,0,0,.315-.315,4.408,4.408,0,0,1,1.2-.946,4.209,4.209,0,0,1,.5-.252,6.757,6.757,0,0,1,1.577-.465,5.518,5.518,0,0,1,.788-.095l-1.025-4.912a10.041,10.041,0,0,1-.71,1.238c-.363.552-.789,1.088-1.262,1.088a.52.52,0,0,1-.347-.134,1.09,1.09,0,0,1-.229-.284c-.071-.126-.142-.237-.2-.339-.789-1.135-1.293-.426-1.293-.426-2.026.741-1.372,5.243-1.372,5.243S670.329,186.384,671.6,185.3Z" transform="translate(-181.339 -106.4)"/><path class="n" d="M673.973,184.62a4.2,4.2,0,0,1,.5-.252c-.205-.859-.457-2.255-.623-3.154a.521.521,0,0,1-.347-.134Z" transform="translate(-182.199 -106.986)"/><path class="j" d="M671.611,185.544a5.684,5.684,0,0,1-.662-2.066,4.841,4.841,0,0,1,1.309-3.351c-.788-1.135-1.293-.426-1.293-.426-2.026.741-1.372,5.243-1.372,5.243S670.342,186.632,671.611,185.544Z" transform="translate(-181.352 -106.648)"/><path class="k" d="M671.611,185.544a5.684,5.684,0,0,1-.662-2.066,4.841,4.841,0,0,1,1.309-3.351c-.788-1.135-1.293-.426-1.293-.426-2.026.741-1.372,5.243-1.372,5.243S670.342,186.632,671.611,185.544Z" transform="translate(-181.352 -106.648)"/><g class="i" transform="translate(484.152 63.284)"><path d="M666.831,168.655A9,9,0,0,0,670.474,170a6.618,6.618,0,0,1,.363-.71L666.2,167.37a9.466,9.466,0,0,1,.631,1.285Z" transform="translate(-664.807 -167.37)"/><path d="M668.037,175.464s1.837.307,1.664-1.356a2.553,2.553,0,0,0-.087-.442,4.364,4.364,0,0,1-.11-1.522,4.249,4.249,0,0,1,.079-.552,7.6,7.6,0,0,1,.867-2.279l-4.636-1.924a9.473,9.473,0,0,1,.647,1.269c.252.615.426,1.3.189,1.656a.544.544,0,0,1-.315.213.835.835,0,0,1-.355,0h-.4c-1.388,0-1.072.788-1.072.788C663.93,173.469,668.037,175.464,668.037,175.464Z" transform="translate(-664.437 -167.374)"/><path d="M666.8,171.327l3.154,1.577a4.217,4.217,0,0,1,.079-.552c-.836-.323-2.129-.9-2.949-1.262A.544.544,0,0,1,666.8,171.327Z" transform="translate(-664.934 -168.157)"/><path d="M668.034,176.312s1.837.308,1.664-1.356a5.677,5.677,0,0,1-2.082-.615,4.857,4.857,0,0,1-2.058-2.941c-1.388,0-1.072.788-1.072.788C663.926,174.317,668.034,176.312,668.034,176.312Z" transform="translate(-664.433 -168.222)"/><path class="k" d="M668.034,176.312s1.837.308,1.664-1.356a5.677,5.677,0,0,1-2.082-.615,4.857,4.857,0,0,1-2.058-2.941c-1.388,0-1.072.788-1.072.788C663.926,174.317,668.034,176.312,668.034,176.312Z" transform="translate(-664.433 -168.222)"/></g><path class="j" d="M667.6,174.832s1.837.307,1.664-1.348a2.417,2.417,0,0,0-.087-.442,4.409,4.409,0,0,1-.11-1.53,4.119,4.119,0,0,1,.079-.544,6.441,6.441,0,0,1,.5-1.577,6.607,6.607,0,0,1,.363-.71l-4.636-1.932a9.466,9.466,0,0,1,.631,1.285c.252.623.426,1.3.189,1.664a.568.568,0,0,1-.315.205.97.97,0,0,1-.355,0h-.4c-1.388,0-1.072.788-1.072.788C663.513,172.845,667.6,174.832,667.6,174.832Z" transform="translate(-180.191 -103.954)"/><path class="n" d="M666.39,170.709l3.154,1.577a4.109,4.109,0,0,1,.079-.544c-.836-.323-2.129-.9-2.949-1.262A.568.568,0,0,1,666.39,170.709Z" transform="translate(-180.695 -104.743)"/><path class="j" d="M667.6,175.684s1.837.307,1.664-1.348a5.865,5.865,0,0,1-2.082-.623,4.841,4.841,0,0,1-2.058-2.933c-1.388,0-1.072.788-1.072.788C663.513,173.7,667.6,175.684,667.6,175.684Z" transform="translate(-180.191 -104.807)"/><path class="k" d="M667.6,175.684s1.837.307,1.664-1.348a5.865,5.865,0,0,1-2.082-.623,4.841,4.841,0,0,1-2.058-2.933c-1.388,0-1.072.788-1.072.788C663.513,173.7,667.6,175.684,667.6,175.684Z" transform="translate(-180.191 -104.807)"/><path class="j" d="M645.232,202.427a9.789,9.789,0,0,1,.717-1.23c.379-.552.844-1.08,1.27-1.08a.5.5,0,0,1,.355.142,1.025,1.025,0,0,1,.221.276c.071.134.142.244.205.347.788,1.151,1.293.434,1.293.434,2.034-.71,1.419-5.228,1.419-5.228s-.788-1.7-2.05-.623a2.894,2.894,0,0,0-.323.307,5.037,5.037,0,0,1-1.7,1.191,7.1,7.1,0,0,1-1.577.449,5.013,5.013,0,0,1-.789.087Z" transform="translate(-176.017 -109.953)"/><path class="n" d="M647.844,200.548a.5.5,0,0,1,.355.142l-.442-3.54a4.135,4.135,0,0,1-.5.244C647.465,198.262,647.7,199.657,647.844,200.548Z" transform="translate(-176.649 -110.385)"/><path class="j" d="M649,200.881c.788,1.151,1.293.434,1.293.434,2.034-.71,1.419-5.228,1.419-5.228s-.788-1.7-2.05-.623a5.52,5.52,0,0,1,.631,2.074A4.778,4.778,0,0,1,649,200.881Z" transform="translate(-177.017 -109.953)"/><path class="k" d="M649,200.881c.788,1.151,1.293.434,1.293.434,2.034-.71,1.419-5.228,1.419-5.228s-.788-1.7-2.05-.623a5.52,5.52,0,0,1,.631,2.074A4.778,4.778,0,0,1,649,200.881Z" transform="translate(-177.017 -109.953)"/><path class="k" d="M641.482,207.85a15.414,15.414,0,0,0,2.365-7.885c.378-.552.844-1.08,1.269-1.08a.5.5,0,0,1,.355.142,1.024,1.024,0,0,1,.221.276c.071.134.142.244.205.347.788,1.151,1.293.434,1.293.434,2.034-.71,1.419-5.228,1.419-5.228s-.789-1.7-2.05-.623a2.9,2.9,0,0,0-.323.307,5.038,5.038,0,0,1-1.7,1.191,7.1,7.1,0,0,1-1.577.449,10.6,10.6,0,0,0-1.459-2.192,17.985,17.985,0,0,0-7.017-4.628C635.584,196.354,637.642,203.718,641.482,207.85Z" transform="translate(-173.946 -108.737)"/><path class="k" d="M657.39,203.083a13.692,13.692,0,0,0,1.7-.378,14.848,14.848,0,0,0,1.506-.52l.323-.134c.418-.181.844-.378,1.269-.6s.639-.331.962-.513c6-3.461,11.827-10.424,14.429-17.488a22.953,22.953,0,0,0,1.411-6.008,16.161,16.161,0,0,0-.047-3.272,23.1,23.1,0,0,0-2.933-8.839c-.173-.292-.339-.568-.52-.836-3.942-6.087-10.573-9.761-17.622-9.02,1.53,4.423,3.706,8.192,6.773,10.156.252.623.426,1.3.189,1.664a.568.568,0,0,1-.315.205.97.97,0,0,1-.355,0h-.4c-1.388,0-1.072.788-1.072.788-.544,2.089,3.548,4.084,3.548,4.084s1.837.308,1.664-1.348a2.421,2.421,0,0,0-.087-.442,4.409,4.409,0,0,1-.11-1.53,4.119,4.119,0,0,1,.079-.544,6.439,6.439,0,0,1,.5-1.577,10.131,10.131,0,0,0,2.634,0,13.989,13.989,0,0,0,3.6-.978c-.166.26-.315.52-.457.788a15.469,15.469,0,0,0-2.365,7.885c-.363.552-.788,1.088-1.262,1.088a.52.52,0,0,1-.347-.134,1.087,1.087,0,0,1-.229-.284c-.071-.126-.142-.237-.205-.339-.788-1.135-1.293-.426-1.293-.426-2.026.741-1.372,5.243-1.372,5.243s.788,1.687,2.058.6a1.983,1.983,0,0,0,.315-.315,4.406,4.406,0,0,1,1.2-.946,4.208,4.208,0,0,1,.5-.252,6.759,6.759,0,0,1,1.577-.465,10.045,10.045,0,0,0,1.474,2.184l.315.339-.11.1a62.279,62.279,0,0,0-6.994,7.443,27.935,27.935,0,0,0-1.8,2.507q-.583.891-1.088,1.774a15.51,15.51,0,0,0-2.318,7.885c-.363.552-.789,1.08-1.262,1.088a.56.56,0,0,1-.355-.134,1.073,1.073,0,0,1-.221-.284c-.079-.126-.142-.237-.213-.339-.789-1.135-1.285-.426-1.285-.426A2.977,2.977,0,0,0,657.39,203.083Z" transform="translate(-178.792 -101.55)"/><g class="i" transform="translate(459.867 53.531)"><path d="M668.095,164.656a2.839,2.839,0,0,0,1.325.181,4.6,4.6,0,0,1,1.94.536c-.3-4.037-5.819-5.2-5.819-5.2a7.491,7.491,0,0,1,2.555,4.486Z" transform="translate(-640.383 -156.094)"/><path d="M633.812,178.26c.1.788.213,1.648.347,2.484,3.588,1.088,7.025,1.435,9.9.52.639.205,1.269.5,1.388.915a.5.5,0,0,1,0,.378.94.94,0,0,1-.213.292,3.892,3.892,0,0,0-.26.292c-.883,1.08-.055,1.356-.055,1.356,1.254,1.75,5.409-.126,5.409-.126s1.411-1.214,0-2.137a3.371,3.371,0,0,0-.386-.221,4.4,4.4,0,0,1-1.254-.891c-.126-.126-.252-.26-.371-.4a7.38,7.38,0,0,1-.883-1.4,9.579,9.579,0,0,0,1.7-2.018c3.335-5.212,3.272-14.374.631-22.306C639.513,156.451,632.4,166.827,633.812,178.26Z" transform="translate(-633.634 -155)"/><path d="M645.827,213.238a8.989,8.989,0,0,0,3.635,1.364,5.734,5.734,0,0,1,.371-.71L645.18,212a10.916,10.916,0,0,1,.647,1.238Z" transform="translate(-636.076 -167.057)"/><path d="M647.033,220.035s1.845.315,1.664-1.348a2.357,2.357,0,0,0-.079-.442,4.424,4.424,0,0,1-.11-1.53,3.924,3.924,0,0,1,.071-.544,7.1,7.1,0,0,1,.5-1.577,5.732,5.732,0,0,1,.37-.71L644.81,212a10.921,10.921,0,0,1,.631,1.277c.244.623.418,1.309.181,1.664a.52.52,0,0,1-.307.213,1.04,1.04,0,0,1-.363,0,3.574,3.574,0,0,0-.394,0c-1.4,0-1.08.788-1.08.788C642.941,218.048,647.033,220.035,647.033,220.035Z" transform="translate(-635.706 -167.057)"/><path d="M645.82,215.939l3.154,1.577a2.059,2.059,0,0,1,.071-.544c-.828-.323-2.129-.9-2.949-1.262a.528.528,0,0,1-.276.229Z" transform="translate(-636.211 -167.841)"/><path d="M647.033,220.874s1.837.307,1.664-1.356a5.6,5.6,0,0,1-2.082-.615,4.809,4.809,0,0,1-2.058-2.933c-1.4,0-1.08.788-1.08.788C642.933,218.887,647.033,220.874,647.033,220.874Z" transform="translate(-635.705 -167.896)"/><path class="k" d="M647.033,220.874s1.837.307,1.664-1.356a5.6,5.6,0,0,1-2.082-.615,4.809,4.809,0,0,1-2.058-2.933c-1.4,0-1.08.788-1.08.788C642.933,218.887,647.033,220.874,647.033,220.874Z" transform="translate(-635.705 -167.896)"/><path class="k" d="M668.095,164.656a2.839,2.839,0,0,0,1.325.181,4.6,4.6,0,0,1,1.94.536c-.3-4.037-5.819-5.2-5.819-5.2a7.491,7.491,0,0,1,2.555,4.486Z" transform="translate(-640.383 -156.094)"/></g><path class="j" d="M635.252,179.034c1.427,11.591,5.425,25.578,15.825,24.293s23.276-17.347,21.849-28.945-11.039-19.933-21.431-18.648S633.817,167.452,635.252,179.034Z" transform="translate(-174.071 -101.597)"/><path class="j" d="M648.46,220.834s1.837.315,1.664-1.348a3.493,3.493,0,0,0-.079-.442,4.232,4.232,0,0,1-.118-1.53,3.131,3.131,0,0,1,.079-.544,7.1,7.1,0,0,1,.875-2.279l-4.636-1.932s1.309,2.2.788,2.949a.544.544,0,0,1-.315.213,1.213,1.213,0,0,1-.355,0h-.394c-1.4,0-1.08.788-1.08.788C644.367,218.855,648.46,220.834,648.46,220.834Z" transform="translate(-176.138 -113.687)"/><path class="n" d="M647.25,216.719,650.4,218.3a3.119,3.119,0,0,1,.079-.544c-.836-.323-2.129-.9-2.949-1.262A.545.545,0,0,1,647.25,216.719Z" transform="translate(-176.647 -114.476)"/><path class="j" d="M648.465,221.684s1.837.315,1.664-1.348a5.518,5.518,0,0,1-2.082-.623A4.778,4.778,0,0,1,646,216.78c-1.4,0-1.08.788-1.08.788C644.373,219.705,648.465,221.684,648.465,221.684Z" transform="translate(-176.143 -114.537)"/><path class="k" d="M648.465,221.684s1.837.315,1.664-1.348a5.518,5.518,0,0,1-2.082-.623A4.778,4.778,0,0,1,646,216.78c-1.4,0-1.08.788-1.08.788C644.373,219.705,648.465,221.684,648.465,221.684Z" transform="translate(-176.143 -114.537)"/><path class="p" d="M667,161s5.519,1.167,5.819,5.2a4.526,4.526,0,0,0-1.948-.528,2.87,2.87,0,0,1-1.317-.189A7.545,7.545,0,0,0,667,161Z" transform="translate(-180.824 -102.738)"/><path class="q" d="M648.325,218.1a3.359,3.359,0,0,1,2.988,4.132c-.694,2.326-3.548,3.059-5.409,4.613a9.482,9.482,0,0,0-2.98,6.458,15.833,15.833,0,0,0,4.55,12.521c1.672,1.648,3.69,2.909,5.338,4.581a27.264,27.264,0,0,1,4.613,7.033,16.462,16.462,0,0,1,2.042,5.914c.276,3.319-1.4,6.5-3.39,9.162s-4.384,5.078-5.929,8.027a16.865,16.865,0,0,0-.97,13.223,1.711,1.711,0,0,0,.56.883.623.623,0,0,0,.915-.2" transform="translate(-175.72 -114.816)"/><path class="q" d="M657.787,217.36a1.577,1.577,0,0,1,.071,2,2.436,2.436,0,0,1-1.924.891c-.891,0-1.884-.276-2.618.244a2.263,2.263,0,0,0-.789,1.711,8.729,8.729,0,0,1-.2,1.932,3.848,3.848,0,0,1-.852,1.388,4.266,4.266,0,0,1-1.577,1.151c-1.317.513-2.839.047-4.187.473-1.774.56-2.728,2.476-3.264,4.258a12.261,12.261,0,0,0-.386,6.607,22.865,22.865,0,0,0,1.79,4.053,9.17,9.17,0,0,1,1.167,4.226,3.879,3.879,0,0,1-2.223,3.548" transform="translate(-175.49 -114.66)"/><path class="q" d="M631.764,280.624c-2.121,2.823-2.925,7.333-6.395,8.019-1.79.355-3.564-.568-5.165-1.451-3.729-2.082-7.569-4.179-11.827-4.865s-8.957.3-11.748,3.54c-1.9,2.224-2.681,5.2-4.352,7.6a15.6,15.6,0,0,1-8.831,5.8,36.137,36.137,0,0,1-10.708.915,5.82,5.82,0,0,1-3.777-1.025,9.192,9.192,0,0,1-1.577-2.4c-1.711-2.87-5.094-4.447-8.429-4.66a22.156,22.156,0,0,0-9.714,2.058c-1.577.647-3.154,1.388-4.841,1.222-2.365-.237-4.108-2.145-5.567-3.982a78.848,78.848,0,0,1-9.564-15.565" transform="translate(-151.692 -127.027)"/><path class="r" d="M497.9,533.39c.844-3.067,1.4-5.764,1.4-5.764a12.063,12.063,0,0,1,1.577-5.843l.039-.844h0l.237-6.221a20.94,20.94,0,0,0-1.443-3.319c-1.049-1.995.355-9.123.355-9.123s4.542-9.943,3.777-16.385,9.619-28.133,9.619-28.133a27.9,27.9,0,0,0-.654-6.308,5.367,5.367,0,0,1-.071-1.325v-.11c.307-4.218,3.942-12.016,3.942-12.016l.134-15.107s-1.79-8.989,2.153-20.808c1.372-4.124,2.279-7.427,2.87-9.982.071-.292.134-.568.189-.836-7.1-1.372-12.553-2.492-12.553-2.492s4.818-17.212,7.743-20.146,5.519-12.411,5.519-12.411,1.932-12.214-.292-15.888-2.287-9.911-2.287-9.911-5.236-4.116-5.843-5.882a28.8,28.8,0,0,1-1.5-7.782c.079-2.066.789-3.887.639-4.975s1.774-5.157.946-7.144a5.518,5.518,0,0,1-.284-1.9s0,0,0-.055a26.414,26.414,0,0,1,.67-5.078,14.381,14.381,0,0,1,5.441-2.641l.134-.465.347-1.206c.189-.118.371-.213.544-.3v-.442l.118-1.766-.694-4c-1.388-6.954,7.885-7.632,7.885-7.632a4.842,4.842,0,0,1,2.7-2.184c1.877-.583-.095,10.384-.986,11.039-.67.5-2.815,3.887-3.848,5.519h0l-.173.276a3.859,3.859,0,0,1,.41.457l-.442,2.365-.071.363a9.958,9.958,0,0,1,1.372,2.563,5.341,5.341,0,0,0-1.5,3.864,12.19,12.19,0,0,1-.741,4.731c.1-.1,1.34-1.34,2.507-.986s4.439,1.474,4.439,1.474,2.452.536,2.208,1.064,1.577,3,1.577,3l6.907-5.929c.071-.189.15-.371.213-.568a15.52,15.52,0,0,0,.686-2.728,15.118,15.118,0,0,1-2.1-.788,4.557,4.557,0,0,1-1.79-1.246,7.1,7.1,0,0,1-.954-2.9,40.925,40.925,0,0,0-2.255-5.582,17.89,17.89,0,0,1-.946-9.911,6.512,6.512,0,0,1,1.135-2.846c1.135-1.451,3.154-1.979,4.6-3.107s2.468-2.917,4.163-3.745a7.953,7.953,0,0,1,5.054-.237,27.044,27.044,0,0,1,9.273,3.777,4.786,4.786,0,0,0,3.1,1.151,4.171,4.171,0,0,0,2.365-1.577v-.087l.071-.087a11.707,11.707,0,0,1,.844,5.007,3.33,3.33,0,0,1-.063.788v.276a1.127,1.127,0,0,0,0,.229h0a1.359,1.359,0,0,0,0,.355,2.547,2.547,0,0,0,.583.923,4.728,4.728,0,0,1,.513.788.914.914,0,0,0-.079-.276,3.942,3.942,0,0,1,.607,2.121,2.113,2.113,0,0,1-.552,1.474,6.849,6.849,0,0,1-1.12.828,12.616,12.616,0,0,1-6.56,12.923c-.079.181-.166.371-.244.56a15.856,15.856,0,0,0-1.482,7.191,1.543,1.543,0,0,0,.063.528,3.457,3.457,0,0,1,.221.284h0s10.944.528,13.617-1.711,6.308,5.961,6.308,5.961,3.9.907,4.731.181,5.393.095,5.393.095a9.88,9.88,0,0,1,6.939-2.231,20.27,20.27,0,0,1,5.133-2.6h.126a5.669,5.669,0,0,1,2.476-.221s5.559-4.242,7.222-6.568,9.462-10.913,9.525-10.944l.039-.434.134-1.285a4.8,4.8,0,0,0,.67.087c.047-.126.1-.276.173-.442a23.476,23.476,0,0,1,1.727-3.588s.063-1.632-.4-2.058.449-6.379.449-6.379,5.283-11.157,9.312-2.523c0,0,8,5.8.859,11.922,0,0-2.8,1.222-3.233,2.263-.284.678-1.293,2.563-1.963,3.808-.118.205-.221.394-.307.56l.079.071-.142,1.057-.063.41c1.277.788,2.129,1.577,1.892,2.105a12.116,12.116,0,0,0-.9,2.9s-10,11.575-11.433,16.637c0,0-26.17,14.193-34.622,14.981l1.167,7.656s.268,4.581.095,6.205.662,9.06.662,9.06,1.041,10.913,2.216,12.482.7,8.074.7,8.074a54.48,54.48,0,0,0,1.333,9.3,23.79,23.79,0,0,1,0,9.249s3.887,9.943-6.063,2.917c0,0-5.007-.5-10.771-.923v.583c0,.741,0,1.577-.063,2.365-.134,5.606-.4,13.325-.875,19.152-.852,10.3-4.778,30.593-4.778,30.593l-.394,10.25a13.357,13.357,0,0,1,.181,2.941,19.05,19.05,0,0,1-3.154,10.164l-1.206,6.773s-2.018,4.431-2.16,7.1a3.371,3.371,0,0,0,.055.654,4.793,4.793,0,0,1,.047,1.057c0,3.107-2.168,10.471-2.168,10.471s-.4,7.491-1.577,7.885c-.97.339,1.12,4.368,1.743,5.519a2.064,2.064,0,0,0,.047-.213l.134.237a5.306,5.306,0,0,1,.276,1.908,2.728,2.728,0,0,1-1.348,2.586c-2.184,1.214-3.367,2.263-1.577,2.76.686.2,1.419.268,1.963.5,0-.087.071-.173.1-.252a1.2,1.2,0,0,1,.686,1.348,5.519,5.519,0,0,1-.788,2.515,26.917,26.917,0,0,1-3.249,5.417l-.859-.126a4.2,4.2,0,0,0,.465.946,3.651,3.651,0,0,0,1.222,1.175,3.942,3.942,0,0,0,1.514.583,4.329,4.329,0,0,1,3.154,1.671c1.057,1.482,1.687,3.485-.591,5.133l-8.129,2.46s-13.877,1.262-13.026-1.806,1.4-5.764,1.4-5.764a12.252,12.252,0,0,1,1.372-5.393,5.675,5.675,0,0,1,.52-.788l-.489-.079s-.741-6.876-2.042-8.232c-.3-.315-.363-.552-.276-.725-.126-.378.229-.583.686-.686a1.181,1.181,0,0,0,.087.268,7.176,7.176,0,0,1,1.348-.095s.591-3.564-.788-4.928a1.38,1.38,0,0,1-.244-1.072,5.852,5.852,0,0,1,.213-1.459l.047.087a52.824,52.824,0,0,1,3.54-8.295s.244-3.256-.607-4.589.788-17.7.788-17.7,0-7.94,1.12-11.6-.93-8.082-.93-8.082v-.237a.174.174,0,0,0,0-.055l.181-1.246v.079c.307-2.089.883-5.874,1.262-7.625.544-2.476.449-14.445.449-14.445l-1.829-5.188-3.942,8.673-4.242,11.535a10.021,10.021,0,0,0-2.129,4.912v.371a6.511,6.511,0,0,1,0,.789,6.97,6.97,0,0,1-1.325,4.139s-1.222,5.519-2.846,6.852-1.727,4.061-1.727,4.061-2.224,7.964-3.154,9.343c-.789,1.159-.97,4.431-1,5.433h0v.292s-.378,2.862-.457,5.283v.8a8.762,8.762,0,0,0,.158,1.963s0,.071,0,.11V495a20.405,20.405,0,0,1,.386,5.03c-.063,2.886-.631,6.308-2.46,8.232C516.9,511.62,515,511.116,515,511.116s1.293,4.4,3.051,5.338a.789.789,0,0,1,.189.126.433.433,0,0,1,.055-.252,2.121,2.121,0,0,1,.465,1.64,11.573,11.573,0,0,1-2.476,6.355,3.555,3.555,0,0,1-1.577.828l.276.189c.221.126.418.229.607.315a2.887,2.887,0,0,0,.907.268,4.281,4.281,0,0,1,3.154,1.672c1.064,1.482,1.7,3.485-.584,5.133l-8.137,2.46S497.048,536.457,497.9,533.39Z" transform="translate(-145.048 -126.29)"/><path class="s" d="M561.13,608.354l7.885-2.468c2.208-1.656,1.577-3.651.576-5.141a4.116,4.116,0,0,0-3.012-1.664,3.73,3.73,0,0,1-1.467-.583,3.51,3.51,0,0,1-1.183-1.175,5.732,5.732,0,0,1-.789-3.036s-8.437-2.823-10.865-.418a6.425,6.425,0,0,0-1.088,1.474,12.617,12.617,0,0,0-1.3,5.456s-.536,2.689-1.356,5.764S561.13,608.354,561.13,608.354Z" transform="translate(-155.758 -194.095)"/><path class="s" d="M513.092,601.655l7.885-2.468c2.208-1.656,1.577-3.651.576-5.133a4.084,4.084,0,0,0-3.02-1.664,3.084,3.084,0,0,1-.875-.276,3.935,3.935,0,0,1-.583-.315c-2.137-1.277-2-4.171-2-4.171s-8.429-2.823-10.857-.418a6.224,6.224,0,0,0-.859,1.08,12.324,12.324,0,0,0-1.53,5.851s-.544,2.7-1.364,5.764S513.092,601.655,513.092,601.655Z" transform="translate(-145.59 -192.686)"/><path class="k" d="M553,593.869a6.425,6.425,0,0,0-1.088,1.474h0l12.726,1.971a5.732,5.732,0,0,1-.788-3.036S555.427,591.464,553,593.869Z" transform="translate(-156.48 -194.094)"/><path class="k" d="M504.155,588.25l-.095,2.365c1.861,3.359,11.5,3.012,14.358,1.474a3.944,3.944,0,0,1-.583-.315c-2.129-1.254-1.995-4.147-1.995-4.147s-8.429-2.823-10.857-.418A6.23,6.23,0,0,0,504.155,588.25Z" transform="translate(-146.359 -192.686)"/><path class="d" d="M502.652,541.75a20.984,20.984,0,0,1,1.4,3.32l-.331,8.579c2.034,3.666,13.4,2.909,14.981,1.009s3.422-6.939,1.719-7.885-2.949-5.338-2.949-5.338,1.829.5,4.9-2.854,2.492-11.11,2.018-12.978.315-8.035.315-8.035.055-4.352.978-5.724,3.083-9.351,3.083-9.351.1-2.712,1.679-4.069,2.76-6.852,2.76-6.852a7.1,7.1,0,0,0,1.269-4.628c-.221-2.728,2.066-5.575,2.066-5.575l4.139-11.591,3.816-8.673,1.727,5.243s.079,11.969-.449,14.453-1.435,9.083-1.435,9.083,2,4.423.883,8.082-1.1,11.591-1.1,11.591-1.577,16.369-.789,17.7.583,4.589.583,4.589-4.826,9.391-3.461,10.747.788,4.928.788,4.928-3.036-.118-1.782,1.238,2.026,8.192,2.026,8.192l13.073,2.026a27.437,27.437,0,0,0,3.154-5.425c1.892-3.942-.181-3.6-1.916-4.1s-.583-1.577,1.53-2.768,1.033-4.2,1.033-4.2-2.949-5.448-1.845-5.843,1.506-7.885,1.506-7.885,2.507-8.823,2.058-11.236,2.05-8.082,2.05-8.082l1.025-6.812a18.805,18.805,0,0,0,2.886-12.829l.41-10.534s3.824-20.3,4.66-30.609c.528-6.592.789-15.62.923-21.249.071-3.154.095-5.251.095-5.251l-46.733-6.694a38.276,38.276,0,0,1-1.12,6.939c-.576,2.563-1.459,5.866-2.791,9.99-3.832,11.827-2.105,20.808-2.105,20.808l-.15,15.107s-4.518,9.943-3.785,13.451a28.683,28.683,0,0,1,.631,6.308s-10.085,21.691-9.351,28.133-3.674,16.392-3.674,16.392S501.643,539.756,502.652,541.75Z" transform="translate(-145.984 -156.562)"/><path class="h" d="M535.733,504.522,521.54,502.07S529.3,510.633,535.733,504.522Z" transform="translate(-150.057 -174.882)"/><path class="k" d="M524.556,484.47s-.686,5.03,2.365,7.049C526.89,491.519,521.386,490.407,524.556,484.47Z" transform="translate(-150.486 -171.159)"/><path class="k" d="M526.71,464.12s11.567,10.29,15.935,9.643S526.71,464.12,526.71,464.12Z" transform="translate(-151.15 -166.855)"/><path class="k" d="M561.77,511.89s8.989,2.413,9.115,6.063S561.77,511.89,561.77,511.89Z" transform="translate(-158.566 -176.959)"/><path class="h" d="M556.374,569.24s12.718,2.878,9.02,4.368a61.836,61.836,0,0,1-9.7,2.539S551.557,576.234,556.374,569.24Z" transform="translate(-156.931 -189.09)"/><g class="t" transform="translate(356.287 265.253)"><path d="M571,577.7a2.523,2.523,0,0,0,1.238-1.813l.126.236s1.08,2.973-1.033,4.195l-.686.418c-.378-.087-.789-.158-1.175-.268C567.731,579.966,568.922,578.926,571,577.7Z" transform="translate(-516.304 -455.75)"/><path d="M550.665,575.679c-.339-.339-.292-1.175-.039-2.239a6.032,6.032,0,0,1,.607,3.154A2.561,2.561,0,0,0,550.665,575.679Z" transform="translate(-512.453 -455.231)"/><path d="M555.823,507.85a14.571,14.571,0,0,1,.71,4.021,16.339,16.339,0,0,0-.883-2.783S555.713,508.607,555.823,507.85Z" transform="translate(-513.558 -441.358)"/><path d="M518.909,498.861a5.083,5.083,0,0,1-.071-1.191c.126.788.213,1.577.268,2.239C519.051,499.562,518.964,499.215,518.909,498.861Z" transform="translate(-505.77 -439.204)"/><path d="M554.311,556.179a7.012,7.012,0,0,1-.237-2.429,8.162,8.162,0,0,1,.513,3.075,3.061,3.061,0,0,0-.276-.647Z" transform="translate(-513.22 -451.066)"/><path d="M549.808,582.68a42.287,42.287,0,0,1,1.246,6.726l13.073,2.026a27.442,27.442,0,0,0,3.154-5.425c.166-.347.3-.662.41-.946.789.394,1.049,1.222-.079,3.564a27.389,27.389,0,0,1-3.154,5.433l-13.073-2.026s-.718-6.883-1.971-8.24C548.767,583.129,549.193,582.822,549.808,582.68Z" transform="translate(-512.171 -457.186)"/><path d="M572.369,530.177s-.394,7.491-1.5,7.885h0c-.5-1.262-.788-2.452-.323-2.626,1.1-.394,1.5-7.885,1.5-7.885s2.515-8.823,2.066-11.236,2.05-8.074,2.05-8.074l1.025-6.812a18.829,18.829,0,0,0,2.886-12.836l.4-10.534s3.832-20.3,4.66-30.6c.536-6.6.789-15.62.93-21.249,0-1.017.039-1.924.047-2.689l.378.055s0,2.1-.095,5.251c-.126,5.63-.394,14.658-.922,21.249-.836,10.305-4.66,30.609-4.66,30.609l-.41,10.534a18.805,18.805,0,0,1-2.886,12.828l-1.025,6.813s-2.5,5.669-2.05,8.082S572.369,530.177,572.369,530.177Z" transform="translate(-516.66 -423.52)"/><path d="M518.75,586.946a12.751,12.751,0,0,0,2.279-5.086c1.293,1.262-.434,5.906-1.948,7.7s-12.939,2.657-14.981-1.009l.079-2.066C507.017,589.508,517.236,588.736,518.75,586.946Z" transform="translate(-502.654 -457.012)"/><path d="M502.324,571.909a21.989,21.989,0,0,1,1.4,3.32l-.063,1.522c-.221-.56-.544-1.317-1-2.216a6.489,6.489,0,0,1-.371-2.7Z" transform="translate(-502.266 -454.891)"/><path d="M522.09,570.633a20.542,20.542,0,0,1-.97-2.626s1.829.5,4.889-2.854c2.239-2.444,2.539-7.215,2.365-10.353.473,1.869,1.049,9.612-2.018,12.978C524.337,569.978,522.87,570.514,522.09,570.633Z" transform="translate(-506.254 -451.289)"/><path d="M530.494,528.759a57,57,0,0,0-.465,6.426,10.145,10.145,0,0,0-.189-1.017c-.473-1.861.315-8.035.315-8.035s.063-4.345.986-5.724,3.075-9.343,3.075-9.343.1-2.72,1.679-4.069,2.768-6.86,2.768-6.86a7.152,7.152,0,0,0,1.262-4.628c-.221-2.728,2.066-5.575,2.066-5.575l4.147-11.591,3.808-8.673,1.758,5.18v1.656l-1.419-4.211-3.793,8.673-4.14,11.591s-2.287,2.846-2.066,5.575a7.1,7.1,0,0,1-1.269,4.628s-1.191,5.519-2.76,6.852-1.679,4.069-1.679,4.069-2.16,7.971-3.083,9.343S530.494,528.759,530.494,528.759Z" transform="translate(-508.067 -433.282)"/></g><path class="u" d="M528.853,288.1l.662,4-.11,1.766-.087,1.3,4.51.639.544-.923h0c1.009-1.664,3.083-5.046,3.737-5.519.867-.678,2.783-11.646.962-11.039a4.731,4.731,0,0,0-2.61,2.192S527.513,281.146,528.853,288.1Z" transform="translate(-151.574 -127.55)"/><path class="k" d="M529.48,299.216l4.51.639.544-.923h0a3.982,3.982,0,0,0-4.967-1.017Z" transform="translate(-151.736 -131.6)"/><path class="v" d="M527.92,301.427,533.841,303l.166-.883.426-2.365a4.116,4.116,0,0,0-5.756-1.017l-.339,1.214Z" transform="translate(-151.406 -131.714)"/><path class="u" d="M651.12,290.961l6.253,3.666.623-1.183c.654-1.246,1.632-3.154,1.908-3.808.418-1.041,3.154-2.271,3.154-2.271,6.923-6.126-.788-11.914-.788-11.914-3.887-8.634-9.02,2.531-9.02,2.531s-.875,5.953-.434,6.379.386,2.05.386,2.05a23.77,23.77,0,0,0-1.679,3.6A7.39,7.39,0,0,0,651.12,290.961Z" transform="translate(-177.466 -126.254)"/><path class="k" d="M651.12,295.748l6.253,3.666.623-1.183c-.875-.788-3.942-3.5-5.015-3.422a7.482,7.482,0,0,1-1.514,0C651.238,295.369,651.12,295.748,651.12,295.748Z" transform="translate(-177.466 -131.042)"/><path class="v" d="M650.2,297.719l7.033,3.808.205-1.577.142-1.057s-4.021-3.722-5.251-3.635a6.473,6.473,0,0,1-1.869-.079l-.134,1.293Z" transform="translate(-177.271 -131.12)"/><path class="u" d="M549.65,318.568s31.121,4.731,25.35,2.6c-4.013-1.482-5.519-4.124-5.764-7.01a16.344,16.344,0,0,1,1.443-7.183,30.948,30.948,0,0,1,3.012-5.519s-23.386-14.066-19.065-1.932a19.206,19.206,0,0,1,1.135,5.716,15.984,15.984,0,0,1-.836,5.7,17.134,17.134,0,0,1-5.275,7.625Z" transform="translate(-156.002 -130.996)"/><path class="k" d="M555.855,299.488a19.206,19.206,0,0,1,1.135,5.716c2.176,1.971,4.652,1.948,7.814,2.066,2.444.095,5.117.788,7.1-.308a30.944,30.944,0,0,1,3.012-5.519S551.5,287.353,555.855,299.488Z" transform="translate(-157.201 -130.989)"/><circle class="u" cx="12.931" cy="12.931" r="12.931" transform="translate(395.532 151.263)"/><path class="k" d="M549.65,322.634s31.121,4.731,25.35,2.6c-4.013-1.482-5.519-4.124-5.764-7.01-1.49-1.743-4.573-3.083-6.552-3.808a9.391,9.391,0,0,0-5.661-.308,7.978,7.978,0,0,0-2.1.875A17.133,17.133,0,0,1,549.65,322.634Z" transform="translate(-156.002 -135.061)"/><path class="k" d="M527.92,301.908l5.921,1.577.166-.883a5.283,5.283,0,0,0-5.669-2.184Z" transform="translate(-151.406 -132.195)"/><path class="k" d="M650.2,298.066l7.033,3.808.205-1.577a52.944,52.944,0,0,0-7.1-3.477Z" transform="translate(-177.271 -131.467)"/><path class="k" d="M530.12,422.409c12.032,2.365,29.174,5.519,31.925,4.8,2.294-.607,9.541-.252,15.833.205.071-3.154.095-5.251.095-5.251L531.24,415.47A38.276,38.276,0,0,1,530.12,422.409Z" transform="translate(-151.871 -156.564)"/><path class="d" d="M515,394.143s39.6,8.374,43.926,7.238,26.233,1.12,26.233,1.12c9.627,7,5.882-2.933,5.882-2.933a23.929,23.929,0,0,0,0-9.241,56.676,56.676,0,0,1-1.269-9.3s.465-6.5-.67-8.074-2.129-12.482-2.129-12.482-.788-7.427-.631-9.052-.087-6.205-.087-6.205l-1.12-7.656c8.184-.788,33.534-15.028,33.534-15.028,1.4-5.054,11.086-16.653,11.086-16.653a12.309,12.309,0,0,1,.867-2.9c.725-1.711-8.918-5.519-8.918-5.519s-7.625,8.626-9.233,10.952-7,6.584-7,6.584a5.322,5.322,0,0,0-2.365.221h-.126a19.357,19.357,0,0,0-4.975,2.61,9.462,9.462,0,0,0-6.718,2.239s-4.431-.789-5.22-.095-4.557-.173-4.557-.173-3.493-8.184-6.079-5.945-13.191,1.727-13.191,1.727c-1.333-1.932-4.731-3.414-6.844-4.187a9.391,9.391,0,0,0-5.661-.315,7.223,7.223,0,0,0-2.279,1l-6.671,6.048s-1.758-2.46-1.522-3-2.129-1.064-2.129-1.064-3.154-1.1-4.3-1.467-2.326.875-2.428.986a12.679,12.679,0,0,0,.725-4.731A5.45,5.45,0,0,1,532.583,305c-3.438-9.462-12.324-2-12.324-2s-1.175,5.07-.378,7.057-1.1,6.048-.93,7.144-.544,2.917-.623,4.983a29.59,29.59,0,0,0,1.443,7.774c.583,1.758,5.645,5.874,5.645,5.874s.087,6.205,2.231,9.88.26,15.888.26,15.888-2.539,9.462-5.377,12.411S515,394.143,515,394.143Z" transform="translate(-148.673 -131.603)"/><path class="k" d="M592.077,330.541s1.333-3.54,2.429-3.824a25.152,25.152,0,0,0,3.209-1.293l-.647-1.364s-4.124.962-4.826,2.137S592.077,330.541,592.077,330.541Z" transform="translate(-164.935 -137.229)"/><path class="k" d="M620.2,322.579c.181,1.088,9.809,2.444,9.809,2.444l-4.731-5.094h-.118A19.357,19.357,0,0,0,620.2,322.579Z" transform="translate(-170.925 -136.355)"/><path class="k" d="M578.847,369.6c.11-.118-25.562,29.852-43.887,11.259C534.992,380.859,564.835,386.087,578.847,369.6Z" transform="translate(-152.895 -146.862)"/><path class="k" d="M594.989,349.94a47.257,47.257,0,0,1-6.056,9.509A38.193,38.193,0,0,1,579.7,367.7S594.665,351.943,594.989,349.94Z" transform="translate(-162.359 -142.703)"/><path class="k" d="M603.508,328.58s-2.854,10.455-9.288,13.8Z" transform="translate(-165.43 -138.185)"/><path class="k" d="M608.386,330.119c.071-.2,1.853,8.429-8.626,12.758C599.76,342.877,604.191,341.56,608.386,330.119Z" transform="translate(-166.602 -138.51)"/><path class="k" d="M528.114,318c.166,0-5.212,3.154-6.694,4.636C521.42,322.648,525.031,317.673,528.114,318Z" transform="translate(-150.031 -135.943)"/><path class="d" d="M566.942,302.478a2.7,2.7,0,0,1-1.072,1.7,2.617,2.617,0,0,1-1.23.229c-3.942.095-8.058.11-11.646-1.577a4.4,4.4,0,0,1-1.727-1.246,7.224,7.224,0,0,1-.922-2.894,42.588,42.588,0,0,0-2.176-5.582,18.45,18.45,0,0,1-.9-9.864,6.679,6.679,0,0,1,1.1-2.854c1.1-1.451,3.028-1.979,4.455-3.115s2.365-2.917,4.037-3.745a7.214,7.214,0,0,1,4.889-.244,25.54,25.54,0,0,1,8.973,3.769,4.587,4.587,0,0,0,3,1.151,4.179,4.179,0,0,0,2.294-1.632,11.883,11.883,0,0,1,.788,5.669,2.573,2.573,0,0,0,0,.852,2.649,2.649,0,0,0,.568.915c.93,1.167,1.467,2.98.465,4.076-.434.489-1.088.733-1.514,1.222-.788.875-.576,2.192-.6,3.359a1.727,1.727,0,0,1-.331,1.135,1.679,1.679,0,0,1-1.577.315,4.479,4.479,0,0,0-1.7-.229,2.878,2.878,0,0,0-1.522,1.08C568.621,297.2,567.817,299.718,566.942,302.478Z" transform="translate(-155.435 -126.425)"/><g class="i" transform="translate(395.311 149.985)"><path d="M551.878,303.683a4.376,4.376,0,0,0,1.735,1.246c3.588,1.656,7.7,1.64,11.646,1.577a2.823,2.823,0,0,0,1.23-.229,2.7,2.7,0,0,0,1.072-1.711c.875-2.752,1.679-5.267,3.587-7.514a2.847,2.847,0,0,1,1.522-1.08,4.478,4.478,0,0,1,1.7.229,1.664,1.664,0,0,0,1.577-.323,1.726,1.726,0,0,0,.331-1.135c0-1.159-.166-2.476.591-3.351.426-.5,1.08-.741,1.522-1.222a2.531,2.531,0,0,0,.347-2.578c.647,1.12.9,2.539.055,3.461-.442.481-1.1.733-1.522,1.222-.788.875-.568,2.192-.591,3.359a1.727,1.727,0,0,1-.331,1.135,1.679,1.679,0,0,1-1.577.315,4.518,4.518,0,0,0-1.7-.229,2.847,2.847,0,0,0-1.522,1.08c-1.908,2.247-2.72,4.731-3.588,7.522a2.7,2.7,0,0,1-1.072,1.7,2.617,2.617,0,0,1-1.23.229c-3.942.095-8.058.11-11.646-1.577a4.375,4.375,0,0,1-1.735-1.246,3.515,3.515,0,0,1-.52-1.064Z" transform="translate(-551.76 -279.5)"/><path d="M584.516,283.654a1.868,1.868,0,0,1-.371-.67,2.363,2.363,0,0,1,0-.844,12.024,12.024,0,0,0-.426-4.731l.071-.079A11.977,11.977,0,0,1,584.54,283a4.164,4.164,0,0,0-.024.654Z" transform="translate(-558.52 -277.33)"/></g><path class="k" d="M570.131,320.18s-16.235,1.514-17.591-.97" transform="translate(-156.614 -136.203)"/><path class="k" d="M532.4,310.427s-8.973-.331-11.039,2.957" transform="translate(-150.018 -134.343)"/></g></svg>